%TF.GenerationSoftware,KiCad,Pcbnew,9.0.0*%
%TF.CreationDate,2025-03-19T22:59:48-05:00*%
%TF.ProjectId,opu_driver,6f70755f-6472-4697-9665-722e6b696361,rev?*%
%TF.SameCoordinates,Original*%
%TF.FileFunction,Legend,Bot*%
%TF.FilePolarity,Positive*%
%FSLAX46Y46*%
G04 Gerber Fmt 4.6, Leading zero omitted, Abs format (unit mm)*
G04 Created by KiCad (PCBNEW 9.0.0) date 2025-03-19 22:59:48*
%MOMM*%
%LPD*%
G01*
G04 APERTURE LIST*
G04 Aperture macros list*
%AMRoundRect*
0 Rectangle with rounded corners*
0 $1 Rounding radius*
0 $2 $3 $4 $5 $6 $7 $8 $9 X,Y pos of 4 corners*
0 Add a 4 corners polygon primitive as box body*
4,1,4,$2,$3,$4,$5,$6,$7,$8,$9,$2,$3,0*
0 Add four circle primitives for the rounded corners*
1,1,$1+$1,$2,$3*
1,1,$1+$1,$4,$5*
1,1,$1+$1,$6,$7*
1,1,$1+$1,$8,$9*
0 Add four rect primitives between the rounded corners*
20,1,$1+$1,$2,$3,$4,$5,0*
20,1,$1+$1,$4,$5,$6,$7,0*
20,1,$1+$1,$6,$7,$8,$9,0*
20,1,$1+$1,$8,$9,$2,$3,0*%
%AMHorizOval*
0 Thick line with rounded ends*
0 $1 width*
0 $2 $3 position (X,Y) of the first rounded end (center of the circle)*
0 $4 $5 position (X,Y) of the second rounded end (center of the circle)*
0 Add line between two ends*
20,1,$1,$2,$3,$4,$5,0*
0 Add two circle primitives to create the rounded ends*
1,1,$1,$2,$3*
1,1,$1,$4,$5*%
%AMRotRect*
0 Rectangle, with rotation*
0 The origin of the aperture is its center*
0 $1 length*
0 $2 width*
0 $3 Rotation angle, in degrees counterclockwise*
0 Add horizontal line*
21,1,$1,$2,0,0,$3*%
%AMFreePoly0*
4,1,13,0.135355,0.205355,0.150000,0.170000,0.150000,-0.080000,0.135355,-0.115355,-0.064645,-0.315355,-0.100000,-0.330000,-0.135355,-0.315355,-0.150000,-0.280000,-0.150000,0.170000,-0.135355,0.205355,-0.100000,0.220000,0.100000,0.220000,0.135355,0.205355,0.135355,0.205355,$1*%
%AMFreePoly1*
4,1,14,0.125355,0.205355,0.140000,0.170000,0.140000,-0.230000,0.125355,-0.265355,0.090000,-0.280000,0.040000,-0.280000,0.004645,-0.265355,-0.145355,-0.115355,-0.160000,-0.080000,-0.160000,0.170000,-0.145355,0.205355,-0.110000,0.220000,0.090000,0.220000,0.125355,0.205355,0.125355,0.205355,$1*%
%AMFreePoly2*
4,1,14,0.125355,0.255355,0.140000,0.220000,0.140000,-0.180000,0.125355,-0.215355,0.090000,-0.230000,-0.110000,-0.230000,-0.145355,-0.215355,-0.160000,-0.180000,-0.160000,0.070000,-0.145355,0.105355,0.004645,0.255355,0.040000,0.270000,0.090000,0.270000,0.125355,0.255355,0.125355,0.255355,$1*%
%AMFreePoly3*
4,1,14,-0.014645,0.265355,0.135355,0.115355,0.150000,0.080000,0.150000,-0.170000,0.135355,-0.205355,0.100000,-0.220000,-0.100000,-0.220000,-0.135355,-0.205355,-0.150000,-0.170000,-0.150000,0.230000,-0.135355,0.265355,-0.100000,0.280000,-0.050000,0.280000,-0.014645,0.265355,-0.014645,0.265355,$1*%
G04 Aperture macros list end*
%ADD10C,0.150000*%
%ADD11C,0.120000*%
%ADD12C,0.200000*%
%ADD13C,0.250000*%
%ADD14C,0.300000*%
%ADD15C,0.400000*%
%ADD16C,0.100000*%
%ADD17C,0.800000*%
%ADD18O,1.190000X2.840000*%
%ADD19C,1.000000*%
%ADD20RoundRect,0.159000X0.189000X-0.159000X0.189000X0.159000X-0.189000X0.159000X-0.189000X-0.159000X0*%
%ADD21RoundRect,0.159000X-0.159000X-0.189000X0.159000X-0.189000X0.159000X0.189000X-0.159000X0.189000X0*%
%ADD22C,0.508000*%
%ADD23RoundRect,0.267317X-0.470683X0.280683X-0.470683X-0.280683X0.470683X-0.280683X0.470683X0.280683X0*%
%ADD24RoundRect,0.159000X0.159000X0.189000X-0.159000X0.189000X-0.159000X-0.189000X0.159000X-0.189000X0*%
%ADD25RoundRect,0.266521X-0.671479X0.346479X-0.671479X-0.346479X0.671479X-0.346479X0.671479X0.346479X0*%
%ADD26FreePoly0,180.000000*%
%ADD27FreePoly1,180.000000*%
%ADD28FreePoly2,180.000000*%
%ADD29FreePoly3,180.000000*%
%ADD30RotRect,0.450000X0.450000X135.000000*%
%ADD31RoundRect,0.159000X-0.189000X0.159000X-0.189000X-0.159000X0.189000X-0.159000X0.189000X0.159000X0*%
%ADD32RoundRect,0.266521X-0.346479X-0.671479X0.346479X-0.671479X0.346479X0.671479X-0.346479X0.671479X0*%
%ADD33RoundRect,0.159000X-0.021213X0.246073X-0.246073X0.021213X0.021213X-0.246073X0.246073X-0.021213X0*%
%ADD34R,0.550000X0.280000*%
%ADD35RoundRect,0.266521X0.671479X-0.346479X0.671479X0.346479X-0.671479X0.346479X-0.671479X-0.346479X0*%
%ADD36RoundRect,0.269000X-0.494000X0.269000X-0.494000X-0.269000X0.494000X-0.269000X0.494000X0.269000X0*%
%ADD37RoundRect,0.267317X0.470683X-0.280683X0.470683X0.280683X-0.470683X0.280683X-0.470683X-0.280683X0*%
%ADD38RoundRect,0.266521X0.346479X0.671479X-0.346479X0.671479X-0.346479X-0.671479X0.346479X-0.671479X0*%
%ADD39RoundRect,0.269000X0.494000X-0.269000X0.494000X0.269000X-0.494000X0.269000X-0.494000X-0.269000X0*%
%ADD40RoundRect,0.159000X0.246073X0.021213X0.021213X0.246073X-0.246073X-0.021213X-0.021213X-0.246073X0*%
%ADD41HorizOval,0.280000X0.537401X0.537401X-0.537401X-0.537401X0*%
%ADD42HorizOval,0.280000X-0.537401X0.537401X0.537401X-0.537401X0*%
%ADD43RoundRect,0.159000X-0.246073X-0.021213X-0.021213X-0.246073X0.246073X0.021213X0.021213X0.246073X0*%
%ADD44RoundRect,0.269000X0.269000X0.494000X-0.269000X0.494000X-0.269000X-0.494000X0.269000X-0.494000X0*%
%ADD45R,0.220000X0.610000*%
%ADD46R,0.410000X0.610000*%
%ADD47R,1.380000X1.130000*%
%ADD48RoundRect,0.159000X0.021213X-0.246073X0.246073X-0.021213X-0.021213X0.246073X-0.246073X0.021213X0*%
%ADD49RoundRect,0.219000X0.219000X0.294000X-0.219000X0.294000X-0.219000X-0.294000X0.219000X-0.294000X0*%
%ADD50RoundRect,0.219000X-0.219000X-0.294000X0.219000X-0.294000X0.219000X0.294000X-0.219000X0.294000X0*%
%ADD51C,0.160000*%
%ADD52RoundRect,0.219000X-0.294000X0.219000X-0.294000X-0.219000X0.294000X-0.219000X0.294000X0.219000X0*%
G04 APERTURE END LIST*
D10*
X38299984Y-137403962D02*
X39109507Y-137403962D01*
X39109507Y-137403962D02*
X39204745Y-137451581D01*
X39204745Y-137451581D02*
X39252365Y-137499200D01*
X39252365Y-137499200D02*
X39299984Y-137594438D01*
X39299984Y-137594438D02*
X39299984Y-137784914D01*
X39299984Y-137784914D02*
X39252365Y-137880152D01*
X39252365Y-137880152D02*
X39204745Y-137927771D01*
X39204745Y-137927771D02*
X39109507Y-137975390D01*
X39109507Y-137975390D02*
X38299984Y-137975390D01*
X39299984Y-138499200D02*
X39299984Y-138689676D01*
X39299984Y-138689676D02*
X39252365Y-138784914D01*
X39252365Y-138784914D02*
X39204745Y-138832533D01*
X39204745Y-138832533D02*
X39061888Y-138927771D01*
X39061888Y-138927771D02*
X38871412Y-138975390D01*
X38871412Y-138975390D02*
X38490460Y-138975390D01*
X38490460Y-138975390D02*
X38395222Y-138927771D01*
X38395222Y-138927771D02*
X38347603Y-138880152D01*
X38347603Y-138880152D02*
X38299984Y-138784914D01*
X38299984Y-138784914D02*
X38299984Y-138594438D01*
X38299984Y-138594438D02*
X38347603Y-138499200D01*
X38347603Y-138499200D02*
X38395222Y-138451581D01*
X38395222Y-138451581D02*
X38490460Y-138403962D01*
X38490460Y-138403962D02*
X38728555Y-138403962D01*
X38728555Y-138403962D02*
X38823793Y-138451581D01*
X38823793Y-138451581D02*
X38871412Y-138499200D01*
X38871412Y-138499200D02*
X38919031Y-138594438D01*
X38919031Y-138594438D02*
X38919031Y-138784914D01*
X38919031Y-138784914D02*
X38871412Y-138880152D01*
X38871412Y-138880152D02*
X38823793Y-138927771D01*
X38823793Y-138927771D02*
X38728555Y-138975390D01*
X66054819Y-138961905D02*
X66864342Y-138961905D01*
X66864342Y-138961905D02*
X66959580Y-139009524D01*
X66959580Y-139009524D02*
X67007200Y-139057143D01*
X67007200Y-139057143D02*
X67054819Y-139152381D01*
X67054819Y-139152381D02*
X67054819Y-139342857D01*
X67054819Y-139342857D02*
X67007200Y-139438095D01*
X67007200Y-139438095D02*
X66959580Y-139485714D01*
X66959580Y-139485714D02*
X66864342Y-139533333D01*
X66864342Y-139533333D02*
X66054819Y-139533333D01*
X67054819Y-140533333D02*
X67054819Y-139961905D01*
X67054819Y-140247619D02*
X66054819Y-140247619D01*
X66054819Y-140247619D02*
X66197676Y-140152381D01*
X66197676Y-140152381D02*
X66292914Y-140057143D01*
X66292914Y-140057143D02*
X66340533Y-139961905D01*
X66054819Y-141152381D02*
X66054819Y-141247619D01*
X66054819Y-141247619D02*
X66102438Y-141342857D01*
X66102438Y-141342857D02*
X66150057Y-141390476D01*
X66150057Y-141390476D02*
X66245295Y-141438095D01*
X66245295Y-141438095D02*
X66435771Y-141485714D01*
X66435771Y-141485714D02*
X66673866Y-141485714D01*
X66673866Y-141485714D02*
X66864342Y-141438095D01*
X66864342Y-141438095D02*
X66959580Y-141390476D01*
X66959580Y-141390476D02*
X67007200Y-141342857D01*
X67007200Y-141342857D02*
X67054819Y-141247619D01*
X67054819Y-141247619D02*
X67054819Y-141152381D01*
X67054819Y-141152381D02*
X67007200Y-141057143D01*
X67007200Y-141057143D02*
X66959580Y-141009524D01*
X66959580Y-141009524D02*
X66864342Y-140961905D01*
X66864342Y-140961905D02*
X66673866Y-140914286D01*
X66673866Y-140914286D02*
X66435771Y-140914286D01*
X66435771Y-140914286D02*
X66245295Y-140961905D01*
X66245295Y-140961905D02*
X66150057Y-141009524D01*
X66150057Y-141009524D02*
X66102438Y-141057143D01*
X66102438Y-141057143D02*
X66054819Y-141152381D01*
X40461624Y-147026903D02*
X39889204Y-147599323D01*
X39889204Y-147599323D02*
X39788189Y-147632995D01*
X39788189Y-147632995D02*
X39720845Y-147632995D01*
X39720845Y-147632995D02*
X39619830Y-147599323D01*
X39619830Y-147599323D02*
X39485143Y-147464636D01*
X39485143Y-147464636D02*
X39451471Y-147363621D01*
X39451471Y-147363621D02*
X39451471Y-147296277D01*
X39451471Y-147296277D02*
X39485143Y-147195262D01*
X39485143Y-147195262D02*
X40057563Y-146622842D01*
X39417799Y-145983079D02*
X39552486Y-146117766D01*
X39552486Y-146117766D02*
X39586158Y-146218781D01*
X39586158Y-146218781D02*
X39586158Y-146286125D01*
X39586158Y-146286125D02*
X39552486Y-146454484D01*
X39552486Y-146454484D02*
X39451471Y-146622842D01*
X39451471Y-146622842D02*
X39182097Y-146892216D01*
X39182097Y-146892216D02*
X39081082Y-146925888D01*
X39081082Y-146925888D02*
X39013738Y-146925888D01*
X39013738Y-146925888D02*
X38912723Y-146892216D01*
X38912723Y-146892216D02*
X38778036Y-146757529D01*
X38778036Y-146757529D02*
X38744364Y-146656514D01*
X38744364Y-146656514D02*
X38744364Y-146589171D01*
X38744364Y-146589171D02*
X38778036Y-146488155D01*
X38778036Y-146488155D02*
X38946395Y-146319797D01*
X38946395Y-146319797D02*
X39047410Y-146286125D01*
X39047410Y-146286125D02*
X39114754Y-146286125D01*
X39114754Y-146286125D02*
X39215769Y-146319797D01*
X39215769Y-146319797D02*
X39350456Y-146454484D01*
X39350456Y-146454484D02*
X39384128Y-146555499D01*
X39384128Y-146555499D02*
X39384128Y-146622842D01*
X39384128Y-146622842D02*
X39350456Y-146723858D01*
X51913459Y-116282486D02*
X51913459Y-115282486D01*
X51913459Y-115282486D02*
X51675364Y-115282486D01*
X51675364Y-115282486D02*
X51532507Y-115330105D01*
X51532507Y-115330105D02*
X51437269Y-115425343D01*
X51437269Y-115425343D02*
X51389650Y-115520581D01*
X51389650Y-115520581D02*
X51342031Y-115711057D01*
X51342031Y-115711057D02*
X51342031Y-115853914D01*
X51342031Y-115853914D02*
X51389650Y-116044390D01*
X51389650Y-116044390D02*
X51437269Y-116139628D01*
X51437269Y-116139628D02*
X51532507Y-116234867D01*
X51532507Y-116234867D02*
X51675364Y-116282486D01*
X51675364Y-116282486D02*
X51913459Y-116282486D01*
X51008697Y-115282486D02*
X50389650Y-115282486D01*
X50389650Y-115282486D02*
X50722983Y-115663438D01*
X50722983Y-115663438D02*
X50580126Y-115663438D01*
X50580126Y-115663438D02*
X50484888Y-115711057D01*
X50484888Y-115711057D02*
X50437269Y-115758676D01*
X50437269Y-115758676D02*
X50389650Y-115853914D01*
X50389650Y-115853914D02*
X50389650Y-116092009D01*
X50389650Y-116092009D02*
X50437269Y-116187247D01*
X50437269Y-116187247D02*
X50484888Y-116234867D01*
X50484888Y-116234867D02*
X50580126Y-116282486D01*
X50580126Y-116282486D02*
X50865840Y-116282486D01*
X50865840Y-116282486D02*
X50961078Y-116234867D01*
X50961078Y-116234867D02*
X51008697Y-116187247D01*
X61054819Y-140633333D02*
X61054819Y-140157143D01*
X61054819Y-140157143D02*
X60054819Y-140157143D01*
X60150057Y-140919048D02*
X60102438Y-140966667D01*
X60102438Y-140966667D02*
X60054819Y-141061905D01*
X60054819Y-141061905D02*
X60054819Y-141300000D01*
X60054819Y-141300000D02*
X60102438Y-141395238D01*
X60102438Y-141395238D02*
X60150057Y-141442857D01*
X60150057Y-141442857D02*
X60245295Y-141490476D01*
X60245295Y-141490476D02*
X60340533Y-141490476D01*
X60340533Y-141490476D02*
X60483390Y-141442857D01*
X60483390Y-141442857D02*
X61054819Y-140871429D01*
X61054819Y-140871429D02*
X61054819Y-141490476D01*
X58361904Y-119054819D02*
X58361904Y-119864342D01*
X58361904Y-119864342D02*
X58314285Y-119959580D01*
X58314285Y-119959580D02*
X58266666Y-120007200D01*
X58266666Y-120007200D02*
X58171428Y-120054819D01*
X58171428Y-120054819D02*
X57980952Y-120054819D01*
X57980952Y-120054819D02*
X57885714Y-120007200D01*
X57885714Y-120007200D02*
X57838095Y-119959580D01*
X57838095Y-119959580D02*
X57790476Y-119864342D01*
X57790476Y-119864342D02*
X57790476Y-119054819D01*
X57409523Y-119054819D02*
X56790476Y-119054819D01*
X56790476Y-119054819D02*
X57123809Y-119435771D01*
X57123809Y-119435771D02*
X56980952Y-119435771D01*
X56980952Y-119435771D02*
X56885714Y-119483390D01*
X56885714Y-119483390D02*
X56838095Y-119531009D01*
X56838095Y-119531009D02*
X56790476Y-119626247D01*
X56790476Y-119626247D02*
X56790476Y-119864342D01*
X56790476Y-119864342D02*
X56838095Y-119959580D01*
X56838095Y-119959580D02*
X56885714Y-120007200D01*
X56885714Y-120007200D02*
X56980952Y-120054819D01*
X56980952Y-120054819D02*
X57266666Y-120054819D01*
X57266666Y-120054819D02*
X57361904Y-120007200D01*
X57361904Y-120007200D02*
X57409523Y-119959580D01*
D11*
%TO.C,TP1*%
X57765463Y-146796217D02*
G75*
G02*
X57003463Y-146796217I-381000J0D01*
G01*
X57003463Y-146796217D02*
G75*
G02*
X57765463Y-146796217I381000J0D01*
G01*
D10*
%TO.C,U9*%
X39985165Y-137465867D02*
X39985165Y-138865867D01*
X40045165Y-137465867D02*
X39985165Y-137465867D01*
X40045165Y-138865867D02*
X39985165Y-138865867D01*
X40695165Y-137465867D02*
X40595165Y-137465867D01*
X40695165Y-138865867D02*
X40595165Y-138865867D01*
X41305165Y-137465867D02*
X41245165Y-137465867D01*
X41305165Y-137465867D02*
X41305165Y-138865867D01*
X41305165Y-138865867D02*
X41245165Y-138865867D01*
X41625165Y-138715867D02*
G75*
G02*
X41465165Y-138715867I-80000J0D01*
G01*
X41465165Y-138715867D02*
G75*
G02*
X41625165Y-138715867I80000J0D01*
G01*
%TO.C,U10*%
X63898627Y-139763665D02*
X62538625Y-139763665D01*
X63898627Y-141523665D02*
X62538625Y-141523665D01*
D12*
X64338627Y-139753665D02*
G75*
G02*
X64138625Y-139753665I-100001J0D01*
G01*
X64138625Y-139753665D02*
G75*
G02*
X64338627Y-139753665I100001J0D01*
G01*
D11*
%TO.C,TP5*%
X58237110Y-145511141D02*
G75*
G02*
X57475110Y-145511141I-381000J0D01*
G01*
X57475110Y-145511141D02*
G75*
G02*
X58237110Y-145511141I381000J0D01*
G01*
D13*
%TO.C,U6*%
X29956078Y-152565867D02*
X33845165Y-156454954D01*
X33845165Y-148676780D02*
X29956078Y-152565867D01*
X33845165Y-156454954D02*
X37734252Y-152565867D01*
X37734252Y-152565867D02*
X33845165Y-148676780D01*
D14*
X33385547Y-157975234D02*
X33385547Y-157975234D01*
X33385547Y-157975234D01*
X33385547Y-157975234D01*
X33385547Y-157975234D01*
X33385547Y-157975234D01*
X33385547Y-157975235D01*
X33385547Y-157975235D01*
X33385547Y-157975235D01*
X33385547Y-157975235D01*
X33385547Y-157975235D01*
X33385547Y-157975235D01*
X33385547Y-157975235D01*
X33385546Y-157975235D01*
X33385546Y-157975235D01*
X33385546Y-157975235D01*
X33385546Y-157975235D01*
X33385546Y-157975235D01*
X33385546Y-157975235D01*
X33385546Y-157975235D01*
X33385546Y-157975235D01*
X33385546Y-157975235D01*
X33385546Y-157975235D01*
X33385546Y-157975235D01*
X33385546Y-157975235D01*
X33385545Y-157975235D01*
X33385545Y-157975235D01*
X33385545Y-157975235D01*
X33385545Y-157975235D01*
X33385545Y-157975235D01*
X33385545Y-157975235D01*
X33385545Y-157975234D01*
X33385545Y-157975234D01*
X33385545Y-157975234D01*
X33385545Y-157975234D01*
X33385545Y-157975234D01*
X33385545Y-157975234D01*
X33385545Y-157975234D02*
X33385545Y-157975234D01*
X33385545Y-157975234D01*
X33385545Y-157975234D01*
X33385545Y-157975234D01*
X33385545Y-157975234D01*
X33385545Y-157975234D01*
X33385545Y-157975233D01*
X33385545Y-157975233D01*
X33385545Y-157975233D01*
X33385545Y-157975233D01*
X33385545Y-157975233D01*
X33385546Y-157975233D01*
X33385546Y-157975233D01*
X33385546Y-157975233D01*
X33385546Y-157975233D01*
X33385546Y-157975233D01*
X33385546Y-157975233D01*
X33385546Y-157975233D01*
X33385546Y-157975233D01*
X33385546Y-157975233D01*
X33385546Y-157975233D01*
X33385546Y-157975233D01*
X33385546Y-157975233D01*
X33385547Y-157975233D01*
X33385547Y-157975233D01*
X33385547Y-157975233D01*
X33385547Y-157975233D01*
X33385547Y-157975233D01*
X33385547Y-157975233D01*
X33385547Y-157975234D01*
X33385547Y-157975234D01*
X33385547Y-157975234D01*
X33385547Y-157975234D01*
X33385547Y-157975234D01*
X33385547Y-157975234D01*
X33385547Y-157975234D01*
D15*
X33986587Y-155394294D02*
X33986587Y-155394294D01*
X33986587Y-155394294D01*
X33986587Y-155394294D01*
X33986587Y-155394294D01*
X33986587Y-155394294D01*
X33986587Y-155394295D01*
X33986587Y-155394295D01*
X33986587Y-155394295D01*
X33986587Y-155394295D01*
X33986587Y-155394295D01*
X33986587Y-155394295D01*
X33986587Y-155394295D01*
X33986586Y-155394295D01*
X33986586Y-155394295D01*
X33986586Y-155394295D01*
X33986586Y-155394295D01*
X33986586Y-155394295D01*
X33986586Y-155394295D01*
X33986586Y-155394295D01*
X33986586Y-155394295D01*
X33986586Y-155394295D01*
X33986586Y-155394295D01*
X33986586Y-155394295D01*
X33986586Y-155394295D01*
X33986585Y-155394295D01*
X33986585Y-155394295D01*
X33986585Y-155394295D01*
X33986585Y-155394295D01*
X33986585Y-155394295D01*
X33986585Y-155394295D01*
X33986585Y-155394294D01*
X33986585Y-155394294D01*
X33986585Y-155394294D01*
X33986585Y-155394294D01*
X33986585Y-155394294D01*
X33986585Y-155394294D01*
X33986585Y-155394294D02*
X33986585Y-155394294D01*
X33986585Y-155394294D01*
X33986585Y-155394294D01*
X33986585Y-155394294D01*
X33986585Y-155394294D01*
X33986585Y-155394294D01*
X33986585Y-155394293D01*
X33986585Y-155394293D01*
X33986585Y-155394293D01*
X33986585Y-155394293D01*
X33986585Y-155394293D01*
X33986586Y-155394293D01*
X33986586Y-155394293D01*
X33986586Y-155394293D01*
X33986586Y-155394293D01*
X33986586Y-155394293D01*
X33986586Y-155394293D01*
X33986586Y-155394293D01*
X33986586Y-155394293D01*
X33986586Y-155394293D01*
X33986586Y-155394293D01*
X33986586Y-155394293D01*
X33986586Y-155394293D01*
X33986587Y-155394293D01*
X33986587Y-155394293D01*
X33986587Y-155394293D01*
X33986587Y-155394293D01*
X33986587Y-155394293D01*
X33986587Y-155394293D01*
X33986587Y-155394294D01*
X33986587Y-155394294D01*
X33986587Y-155394294D01*
X33986587Y-155394294D01*
X33986587Y-155394294D01*
X33986587Y-155394294D01*
X33986587Y-155394294D01*
D11*
%TO.C,TP4*%
X58316053Y-147340328D02*
G75*
G02*
X57554053Y-147340328I-381000J0D01*
G01*
X57554053Y-147340328D02*
G75*
G02*
X58316053Y-147340328I381000J0D01*
G01*
D10*
%TO.C,D3*%
X49235765Y-116924067D02*
X49235765Y-118084067D01*
X51895765Y-116924067D02*
X51895765Y-118084067D01*
X49635765Y-116484067D02*
G75*
G02*
X49495765Y-116484067I-70000J0D01*
G01*
X49495765Y-116484067D02*
G75*
G02*
X49635765Y-116484067I70000J0D01*
G01*
D13*
%TO.C,L2*%
X61373625Y-142753665D02*
X61373626Y-141613665D01*
X61373625Y-144783665D02*
X61373625Y-143513665D01*
X61373626Y-141483665D02*
X61633625Y-141233665D01*
X61373626Y-141613665D02*
X61373626Y-141483665D01*
X61633625Y-141233665D02*
X63033625Y-141233665D01*
X61633625Y-145043665D02*
X61373625Y-144783665D01*
X61763625Y-145043665D02*
X61633625Y-145043665D01*
X63033625Y-141233665D02*
X63153625Y-141233665D01*
X63153625Y-141233665D02*
X63413624Y-141483665D01*
X63153625Y-145043665D02*
X61763625Y-145043665D01*
X63413624Y-141483665D02*
X63413625Y-142753665D01*
X63413625Y-143513665D02*
X63413625Y-144653665D01*
X63413625Y-144653665D02*
X63413625Y-144783665D01*
X63413625Y-144783665D02*
X63153625Y-145043665D01*
D16*
%TO.C,U3*%
X56650000Y-120300000D02*
X56650000Y-121700000D01*
X56650000Y-121480000D02*
X56650000Y-121490000D01*
X56650000Y-121480000D02*
X56650000Y-121540000D01*
X56650000Y-121490000D02*
X56860000Y-121700000D01*
X56650000Y-121540000D02*
X56810000Y-121700000D01*
X58550000Y-120300000D02*
X56650000Y-120300000D01*
X58550000Y-121700000D02*
X56660000Y-121700000D01*
X58550000Y-121700000D02*
X58550000Y-120300000D01*
X56510000Y-121460000D02*
G75*
G02*
X56410000Y-121460000I-50000J0D01*
G01*
X56410000Y-121460000D02*
G75*
G02*
X56510000Y-121460000I50000J0D01*
G01*
D11*
%TO.C,TP2*%
X57731100Y-147872833D02*
G75*
G02*
X57019900Y-147872833I-355600J0D01*
G01*
X57019900Y-147872833D02*
G75*
G02*
X57731100Y-147872833I355600J0D01*
G01*
%TO.C,TP3*%
X58317374Y-146260064D02*
G75*
G02*
X57555374Y-146260064I-381000J0D01*
G01*
X57555374Y-146260064D02*
G75*
G02*
X58317374Y-146260064I381000J0D01*
G01*
%TD*%
%LPC*%
D17*
%TO.C,USB1*%
X52869765Y-109008067D03*
X48769765Y-107658067D03*
D18*
X55389765Y-108778067D03*
D19*
X55319765Y-113468067D03*
X46319765Y-113468067D03*
D18*
X46249765Y-108778067D03*
%TD*%
D20*
%TO.C,C44*%
X51048685Y-149608587D03*
X51048685Y-148608587D03*
%TD*%
D21*
%TO.C,C45*%
X50945165Y-151600000D03*
X51945165Y-151600000D03*
%TD*%
D22*
%TO.C,TP1*%
X57384463Y-146796217D03*
%TD*%
D23*
%TO.C,R34*%
X44218758Y-160474273D03*
X44218758Y-162294273D03*
%TD*%
D20*
%TO.C,C113*%
X51435439Y-160541439D03*
X51435439Y-159541441D03*
%TD*%
D24*
%TO.C,R15*%
X56545164Y-144340837D03*
X55545164Y-144340837D03*
%TD*%
D25*
%TO.C,C106*%
X60045164Y-146603194D03*
X60045164Y-149563194D03*
%TD*%
D26*
%TO.C,U9*%
X40975165Y-138645867D03*
D27*
X40315165Y-138645867D03*
D28*
X40315165Y-137695867D03*
D29*
X40975165Y-137685867D03*
D30*
X40645165Y-138165867D03*
%TD*%
D20*
%TO.C,C11*%
X49448165Y-127376667D03*
X49448165Y-126376667D03*
%TD*%
D25*
%TO.C,C85*%
X62142332Y-156854188D03*
X62142332Y-159814188D03*
%TD*%
D31*
%TO.C,C50*%
X49051400Y-149033642D03*
X49051400Y-150033640D03*
%TD*%
D32*
%TO.C,C101*%
X64336201Y-146165866D03*
X67296201Y-146165866D03*
%TD*%
D33*
%TO.C,C73*%
X29325224Y-149012314D03*
X28618118Y-149719420D03*
%TD*%
D24*
%TO.C,C35*%
X49058036Y-146134341D03*
X48058038Y-146134341D03*
%TD*%
D31*
%TO.C,C120*%
X46527282Y-159875672D03*
X46527282Y-160875670D03*
%TD*%
D20*
%TO.C,C36*%
X52045165Y-146865867D03*
X52045165Y-145865867D03*
%TD*%
D34*
%TO.C,U10*%
X63938625Y-140143665D03*
X63938626Y-140643665D03*
X63938625Y-141143665D03*
X62498627Y-141143665D03*
X62498626Y-140643665D03*
X62498627Y-140143665D03*
%TD*%
D24*
%TO.C,R14*%
X56163393Y-135685168D03*
X55163393Y-135685168D03*
%TD*%
D21*
%TO.C,C55*%
X55145165Y-145965867D03*
X56145165Y-145965867D03*
%TD*%
D31*
%TO.C,C122*%
X45698765Y-163474819D03*
X45698765Y-164474817D03*
%TD*%
D35*
%TO.C,C80*%
X58400000Y-164768315D03*
X58400000Y-161808315D03*
%TD*%
%TO.C,C87*%
X64509780Y-155129083D03*
X64509780Y-152169083D03*
%TD*%
D36*
%TO.C,C90*%
X64308521Y-156805308D03*
X64308521Y-158705306D03*
%TD*%
D31*
%TO.C,C42*%
X50988331Y-146552326D03*
X50988331Y-147552326D03*
%TD*%
D37*
%TO.C,R32*%
X42310321Y-165688587D03*
X42310321Y-163868587D03*
%TD*%
D21*
%TO.C,C114*%
X49397247Y-159554507D03*
X50397245Y-159554507D03*
%TD*%
D38*
%TO.C,C98*%
X42125165Y-140165868D03*
X39165165Y-140165868D03*
%TD*%
D39*
%TO.C,C81*%
X57738311Y-155235167D03*
X57738311Y-153335169D03*
%TD*%
D40*
%TO.C,C72*%
X29902407Y-148421624D03*
X29195301Y-147714518D03*
%TD*%
D23*
%TO.C,R33*%
X42323619Y-160479694D03*
X42323619Y-162299694D03*
%TD*%
D24*
%TO.C,C49*%
X48052351Y-148948599D03*
X47052351Y-148948599D03*
%TD*%
D35*
%TO.C,C89*%
X65873323Y-164130342D03*
X65873323Y-161170342D03*
%TD*%
D20*
%TO.C,C121*%
X46523041Y-166271866D03*
X46523041Y-165271868D03*
%TD*%
D37*
%TO.C,R31*%
X44218758Y-165694273D03*
X44218758Y-163874273D03*
%TD*%
D24*
%TO.C,C128*%
X41513904Y-141874847D03*
X40513906Y-141874847D03*
%TD*%
D35*
%TO.C,C83*%
X59883850Y-155151563D03*
X59883850Y-152191563D03*
%TD*%
D22*
%TO.C,TP5*%
X57856110Y-145511141D03*
%TD*%
D24*
%TO.C,R13*%
X56545165Y-145165867D03*
X55545165Y-145165867D03*
%TD*%
D35*
%TO.C,C79*%
X63506633Y-164790551D03*
X63506633Y-161830551D03*
%TD*%
D33*
%TO.C,C92*%
X30004260Y-156741306D03*
X29297154Y-157448412D03*
%TD*%
D25*
%TO.C,C82*%
X57549500Y-156819992D03*
X57549500Y-159779992D03*
%TD*%
D31*
%TO.C,C41*%
X53046667Y-147362987D03*
X53046667Y-148362987D03*
%TD*%
%TO.C,C51*%
X50031627Y-146548736D03*
X50031627Y-147548736D03*
%TD*%
D20*
%TO.C,C48*%
X50045165Y-149465867D03*
X50045165Y-148465867D03*
%TD*%
D41*
%TO.C,U6*%
X32925926Y-157374193D03*
X32572373Y-157020640D03*
X32218819Y-156667086D03*
X31865266Y-156313533D03*
X31511713Y-155959980D03*
X31158159Y-155606426D03*
X30804606Y-155252873D03*
X30451052Y-154899319D03*
X30097499Y-154545766D03*
X29743946Y-154192213D03*
X29390392Y-153838659D03*
X29036839Y-153485106D03*
D42*
X29036839Y-151646628D03*
X29390392Y-151293075D03*
X29743946Y-150939521D03*
X30097499Y-150585968D03*
X30451052Y-150232415D03*
X30804606Y-149878861D03*
X31158159Y-149525308D03*
X31511713Y-149171754D03*
X31865266Y-148818201D03*
X32218819Y-148464648D03*
X32572373Y-148111094D03*
X32925926Y-147757541D03*
D41*
X34764404Y-147757541D03*
X35117957Y-148111094D03*
X35471511Y-148464648D03*
X35825064Y-148818201D03*
X36178617Y-149171754D03*
X36532171Y-149525308D03*
X36885724Y-149878861D03*
X37239278Y-150232415D03*
X37592831Y-150585968D03*
X37946384Y-150939521D03*
X38299938Y-151293075D03*
X38653491Y-151646628D03*
D42*
X38653491Y-153485106D03*
X38299938Y-153838659D03*
X37946384Y-154192213D03*
X37592831Y-154545766D03*
X37239278Y-154899319D03*
X36885724Y-155252873D03*
X36532171Y-155606426D03*
X36178617Y-155959980D03*
X35825064Y-156313533D03*
X35471511Y-156667086D03*
X35117957Y-157020640D03*
X34764404Y-157374193D03*
%TD*%
D20*
%TO.C,C12*%
X50260965Y-127376667D03*
X50260965Y-126376667D03*
%TD*%
D31*
%TO.C,C59*%
X49052453Y-151559591D03*
X49052453Y-152559591D03*
%TD*%
D43*
%TO.C,C68*%
X30423256Y-145247772D03*
X31130362Y-145954878D03*
%TD*%
D31*
%TO.C,C47*%
X54860130Y-149300001D03*
X54860130Y-150299999D03*
%TD*%
D21*
%TO.C,C40*%
X47578814Y-147008104D03*
X48578814Y-147008104D03*
%TD*%
D44*
%TO.C,C4*%
X56725064Y-117744030D03*
X54825066Y-117744030D03*
%TD*%
D21*
%TO.C,C53*%
X53044955Y-150328147D03*
X54044955Y-150328147D03*
%TD*%
D20*
%TO.C,C69*%
X28451184Y-145871646D03*
X28451184Y-144871648D03*
%TD*%
D25*
%TO.C,C105*%
X62352628Y-146618123D03*
X62352628Y-149578123D03*
%TD*%
D22*
%TO.C,TP4*%
X57935053Y-147340328D03*
%TD*%
D21*
%TO.C,C38*%
X53559244Y-151126519D03*
X54559244Y-151126519D03*
%TD*%
D45*
%TO.C,D3*%
X49565765Y-117094067D03*
X50065765Y-117094067D03*
D46*
X50565765Y-117094067D03*
D45*
X51065765Y-117094067D03*
X51565765Y-117094067D03*
X51565765Y-117914067D03*
X51065765Y-117914067D03*
D46*
X50565765Y-117914067D03*
D45*
X50065765Y-117914067D03*
X49565765Y-117914067D03*
%TD*%
D32*
%TO.C,C99*%
X63913625Y-142773664D03*
X66873625Y-142773664D03*
%TD*%
D20*
%TO.C,C52*%
X48049224Y-150741120D03*
X48049224Y-149741120D03*
%TD*%
D31*
%TO.C,R46*%
X50434890Y-141336509D03*
X50434890Y-142336507D03*
%TD*%
D33*
%TO.C,C74*%
X31779945Y-158537224D03*
X31072839Y-159244330D03*
%TD*%
D35*
%TO.C,C104*%
X60393626Y-142253664D03*
X60393626Y-139293664D03*
%TD*%
D21*
%TO.C,C39*%
X48072587Y-148115257D03*
X49072585Y-148115257D03*
%TD*%
D47*
%TO.C,L2*%
X62393625Y-142203664D03*
X62393625Y-144143666D03*
%TD*%
D24*
%TO.C,R1*%
X51700765Y-124539867D03*
X50700765Y-124539867D03*
%TD*%
D31*
%TO.C,C123*%
X46510321Y-163478588D03*
X46510321Y-164478586D03*
%TD*%
D48*
%TO.C,C65*%
X35995575Y-146523569D03*
X36702681Y-145816463D03*
%TD*%
D20*
%TO.C,C124*%
X46508765Y-162678586D03*
X46508765Y-161678588D03*
%TD*%
D31*
%TO.C,C43*%
X49876204Y-151443253D03*
X49876204Y-152443253D03*
%TD*%
%TO.C,C56*%
X52737425Y-151400879D03*
X52737425Y-152400877D03*
%TD*%
D24*
%TO.C,R16*%
X55290479Y-134636263D03*
X54290479Y-134636263D03*
%TD*%
D43*
%TO.C,C63*%
X39491612Y-155012314D03*
X40198718Y-155719420D03*
%TD*%
D49*
%TO.C,R38*%
X52265166Y-164965867D03*
X50625164Y-164965867D03*
%TD*%
D31*
%TO.C,C60*%
X48234058Y-151561459D03*
X48234058Y-152561459D03*
%TD*%
D21*
%TO.C,R8*%
X55100000Y-121011966D03*
X56100000Y-121011966D03*
%TD*%
D50*
%TO.C,R19*%
X62411457Y-138246951D03*
X64051459Y-138246951D03*
%TD*%
D51*
%TO.C,U3*%
X57000000Y-121400000D03*
X57400000Y-121400000D03*
X57800000Y-121400000D03*
X58200000Y-121400000D03*
X57000000Y-121000000D03*
X57400000Y-121000000D03*
X57800000Y-121000000D03*
X58200000Y-121000000D03*
X57000000Y-120600000D03*
X57400000Y-120600000D03*
X57800000Y-120600000D03*
X58200000Y-120600000D03*
%TD*%
D49*
%TO.C,R39*%
X52265166Y-166165867D03*
X50625164Y-166165867D03*
%TD*%
D20*
%TO.C,C125*%
X45698765Y-162678586D03*
X45698765Y-161678588D03*
%TD*%
D24*
%TO.C,C37*%
X52028964Y-150600000D03*
X51028964Y-150600000D03*
%TD*%
D22*
%TO.C,TP2*%
X57375500Y-147872833D03*
%TD*%
D21*
%TO.C,C61*%
X53545165Y-151990047D03*
X54545165Y-151990047D03*
%TD*%
D20*
%TO.C,C62*%
X52981941Y-145628147D03*
X52981941Y-144628147D03*
%TD*%
%TO.C,C118*%
X45723042Y-166271866D03*
X45723042Y-165271868D03*
%TD*%
D24*
%TO.C,R10*%
X64922278Y-148087563D03*
X63922280Y-148087563D03*
%TD*%
D22*
%TO.C,TP3*%
X57936374Y-146260064D03*
%TD*%
D21*
%TO.C,C94*%
X62931459Y-139246951D03*
X63931457Y-139246951D03*
%TD*%
D24*
%TO.C,C46*%
X46945165Y-148069760D03*
X45945165Y-148069760D03*
%TD*%
D38*
%TO.C,C97*%
X42125165Y-136165866D03*
X39165165Y-136165866D03*
%TD*%
%TO.C,C1*%
X57483117Y-122903874D03*
X54523117Y-122903874D03*
%TD*%
D48*
%TO.C,C70*%
X28982812Y-146697500D03*
X29689918Y-145990394D03*
%TD*%
D24*
%TO.C,C54*%
X54072586Y-146538319D03*
X53072586Y-146538319D03*
%TD*%
D25*
%TO.C,C86*%
X59845165Y-156833699D03*
X59845165Y-159793699D03*
%TD*%
D31*
%TO.C,C119*%
X45682054Y-159878587D03*
X45682054Y-160878585D03*
%TD*%
D52*
%TO.C,R22*%
X64993626Y-139353663D03*
X64993626Y-140993665D03*
%TD*%
D35*
%TO.C,C103*%
X57993626Y-142253664D03*
X57993626Y-139293664D03*
%TD*%
%TO.C,C84*%
X62212208Y-155151563D03*
X62212208Y-152191563D03*
%TD*%
D38*
%TO.C,C2*%
X57480000Y-125200000D03*
X54520000Y-125200000D03*
%TD*%
D21*
%TO.C,R40*%
X45500000Y-130600000D03*
X46500000Y-130600000D03*
%TD*%
%LPD*%
M02*
