M48
; DRILL file {KiCad 9.0.0} date 2025-03-19T22:59:48-0500
; FORMAT={-:-/ absolute / inch / decimal}
; #@! TF.CreationDate,2025-03-19T22:59:48-05:00
; #@! TF.GenerationSoftware,Kicad,Pcbnew,9.0.0
; #@! TF.FileFunction,Plated,1,4,PTH
FMAT,2
INCH
; #@! TA.AperFunction,Plated,PTH,ViaDrill
T1C0.0059
; #@! TA.AperFunction,Plated,PTH,ComponentDrill
T2C0.0276
; #@! TA.AperFunction,Plated,PTH,ComponentDrill
T3C0.0315
; #@! TA.AperFunction,Plated,PTH,ComponentDrill
T4C0.0315
%
G90
G05
T1
X1.0787Y-4.1811
X1.0787Y-4.2283
X1.0787Y-4.2835
X1.0787Y-4.3307
X1.0787Y-4.3858
X1.0787Y-4.4331
X1.0787Y-4.4882
X1.0787Y-4.5354
X1.0787Y-4.5906
X1.0787Y-4.6378
X1.0787Y-4.6929
X1.0787Y-4.7402
X1.0787Y-4.7953
X1.0787Y-4.8425
X1.0787Y-4.8976
X1.0787Y-4.9449
X1.0787Y-5.0
X1.0787Y-5.0551
X1.0787Y-5.1024
X1.0787Y-5.1575
X1.0787Y-5.2047
X1.0787Y-5.2598
X1.0787Y-5.3071
X1.0787Y-5.3543
X1.0787Y-5.4094
X1.0787Y-5.4567
X1.0787Y-5.5118
X1.0787Y-5.5591
X1.0787Y-5.6142
X1.0787Y-5.6614
X1.0787Y-5.7087
X1.0787Y-5.7638
X1.0787Y-5.811
X1.0787Y-5.8661
X1.0787Y-5.9134
X1.0787Y-5.9685
X1.0787Y-6.0157
X1.0787Y-6.063
X1.0787Y-6.1181
X1.0787Y-6.1654
X1.0787Y-6.2205
X1.0787Y-6.2677
X1.0787Y-6.3228
X1.0787Y-6.3701
X1.0787Y-6.4173
X1.0787Y-6.4724
X1.0787Y-6.5197
X1.0787Y-6.5748
X1.0787Y-6.622
X1.0787Y-6.6772
X1.0787Y-6.7244
X1.0787Y-6.7638
X1.0787Y-6.8189
X1.0787Y-6.8661
X1.0787Y-6.9213
X1.1111Y-6.0731
X1.1126Y-5.9398
X1.1181Y-6.9213
X1.1205Y-5.723
X1.1239Y-5.7629
X1.1255Y-6.1181
X1.1257Y-5.9251
X1.126Y-4.1811
X1.1394Y-6.1012
X1.1397Y-6.2131
X1.1402Y-5.9108
X1.1534Y-6.1496
X1.1535Y-5.897
X1.1575Y-6.9213
X1.1633Y-5.8291
X1.1654Y-4.1811
X1.1671Y-6.1295
X1.1676Y-5.8834
X1.1811Y-6.1431
X1.1826Y-5.7335
X1.2047Y-6.9213
X1.2089Y-6.2827
X1.209Y-6.1714
X1.2126Y-4.1811
X1.2205Y-6.2283
X1.2223Y-5.9829
X1.2228Y-6.1848
X1.2393Y-5.7608
X1.2441Y-6.9213
X1.2506Y-5.8003
X1.252Y-4.1811
X1.2608Y-6.0923
X1.2653Y-5.7856
X1.2856Y-5.8904
X1.2913Y-6.9213
X1.2992Y-4.1811
X1.2998Y-6.1368
X1.3307Y-6.9213
X1.3335Y-6.1477
X1.3372Y-6.1645
X1.3386Y-4.1811
X1.3472Y-6.1341
X1.3508Y-6.1511
X1.3649Y-6.1369
X1.3768Y-6.1066
X1.378Y-6.9213
X1.3797Y-5.8963
X1.381Y-6.1246
X1.3858Y-4.1811
X1.3858Y-5.7717
X1.389Y-6.0908
X1.3929Y-6.1088
X1.3955Y-5.9435
X1.4066Y-6.0955
X1.4112Y-5.9278
X1.4185Y-6.063
X1.4206Y-6.0811
X1.4252Y-6.9213
X1.4295Y-5.5009
X1.4302Y-5.6397
X1.432Y-6.0505
X1.4331Y-4.1811
X1.4351Y-6.0674
X1.4427Y-5.9593
X1.4486Y-6.0534
X1.459Y-5.7267
X1.4598Y-5.5561
X1.4634Y-5.7041
X1.4637Y-6.0394
X1.4724Y-6.9213
X1.4743Y-5.5427
X1.4799Y-5.611
X1.4803Y-4.1811
X1.5007Y-5.5892
X1.5007Y-5.611
X1.501Y-5.6307
X1.5033Y-5.5444
X1.5101Y-5.4894
X1.5118Y-6.9213
X1.5174Y-5.5804
X1.5197Y-4.1811
X1.5221Y-5.6109
X1.5259Y-5.6837
X1.5451Y-5.7624
X1.553Y-5.5656
X1.5591Y-6.9213
X1.5669Y-4.1811
X1.5685Y-6.1165
X1.5728Y-5.4582
X1.5734Y-5.3867
X1.5734Y-5.5451
X1.5734Y-5.4925
X1.5735Y-5.3349
X1.5748Y-5.0709
X1.5749Y-5.5875
X1.5942Y-5.6069
X1.5969Y-6.1448
X1.5984Y-6.9213
X1.6002Y-5.4396
X1.6063Y-4.1811
X1.6142Y-5.3307
X1.6142Y-5.3543
X1.6142Y-5.378
X1.6142Y-5.4016
X1.616Y-5.5656
X1.6279Y-6.185
X1.628Y-6.1529
X1.6317Y-5.5656
X1.6457Y-5.126
X1.6457Y-6.9213
X1.6474Y-5.5656
X1.6535Y-4.1811
X1.6632Y-5.5656
X1.685Y-6.9213
X1.6929Y-4.1811
X1.6984Y-4.8764
X1.7048Y-6.1757
X1.7323Y-6.9213
X1.738Y-6.749
X1.738Y-6.7784
X1.7402Y-4.1811
X1.747Y-6.1757
X1.7538Y-4.7561
X1.7578Y-4.4861
X1.7605Y-6.4807
X1.7775Y-5.2788
X1.7776Y-5.2474
X1.7776Y-6.3345
X1.7776Y-5.1845
X1.7777Y-5.3421
X1.7777Y-5.3105
X1.7778Y-4.3551
X1.7778Y-4.4141
X1.7778Y-6.4754
X1.778Y-5.2159
X1.7781Y-6.3661
X1.779Y-6.5068
X1.7795Y-6.9213
X1.7813Y-5.101
X1.7874Y-4.1811
X1.7888Y-4.8721
X1.7892Y-4.9514
X1.8049Y-4.9514
X1.8126Y-5.7112
X1.8126Y-5.9868
X1.8128Y-5.79
X1.8128Y-5.8884
X1.8149Y-5.8666
X1.8151Y-6.3134
X1.8153Y-6.461
X1.8158Y-6.2502
X1.8198Y-4.8721
X1.8268Y-6.9213
X1.8276Y-5.3576
X1.8277Y-5.3261
X1.8279Y-5.2631
X1.828Y-5.2001
X1.8285Y-5.2946
X1.8285Y-5.2316
X1.8318Y-5.9868
X1.8322Y-5.77
X1.8322Y-5.7508
X1.8324Y-5.731
X1.8325Y-6.0062
X1.8325Y-5.948
X1.8325Y-5.79
X1.8325Y-5.8884
X1.8325Y-5.8686
X1.8329Y-5.9275
X1.8337Y-5.1786
X1.8346Y-4.1811
X1.8346Y-5.0279
X1.8425Y-5.0127
X1.8426Y-5.0422
X1.8438Y-4.8875
X1.8497Y-5.1284
X1.8504Y-5.7597
X1.8506Y-6.4631
X1.8508Y-4.3551
X1.8508Y-4.4141
X1.852Y-6.3656
X1.8521Y-5.9476
X1.8522Y-5.7309
X1.8522Y-5.9278
X1.8522Y-5.9672
X1.8522Y-5.9875
X1.8522Y-6.0065
X1.8522Y-6.0538
X1.8523Y-5.7897
X1.8528Y-6.5072
X1.8531Y-6.3352
X1.8557Y-6.4799
X1.8561Y-6.748
X1.8564Y-5.2069
X1.8564Y-5.3133
X1.8565Y-5.3607
X1.8565Y-5.414
X1.8566Y-5.2614
X1.862Y-6.0302
X1.8653Y-5.1814
X1.8661Y-6.9213
X1.8664Y-6.0455
X1.8716Y-5.77
X1.8717Y-5.9281
X1.8719Y-5.8097
X1.8719Y-5.8294
X1.8719Y-5.849
X1.8719Y-5.9081
X1.8719Y-6.0065
X1.8719Y-5.8882
X1.8725Y-5.8687
X1.8728Y-4.4591
X1.8728Y-4.5201
X1.8728Y-4.5631
X1.8728Y-4.6351
X1.874Y-4.1811
X1.8768Y-4.9381
X1.8787Y-5.7339
X1.8795Y-4.8718
X1.881Y-5.1816
X1.8813Y-5.7178
X1.8915Y-5.7703
X1.8915Y-5.8097
X1.8928Y-4.9391
X1.9063Y-6.4362
X1.9067Y-5.207
X1.9072Y-5.2616
X1.9073Y-5.3134
X1.9073Y-5.3609
X1.9081Y-5.4137
X1.9112Y-5.7309
X1.9112Y-5.6916
X1.9112Y-5.7704
X1.9112Y-5.7111
X1.9113Y-5.8483
X1.9115Y-5.9078
X1.9134Y-6.9213
X1.9155Y-4.8077
X1.9184Y-5.0651
X1.9213Y-4.1811
X1.9215Y-6.4065
X1.924Y-6.2618
X1.9242Y-4.9341
X1.9283Y-5.1815
X1.9306Y-5.7313
X1.9309Y-5.79
X1.9309Y-5.7703
X1.9309Y-5.8097
X1.9309Y-5.9278
X1.931Y-5.987
X1.9318Y-4.4591
X1.9318Y-4.5201
X1.9328Y-4.5931
X1.9411Y-6.4057
X1.944Y-5.1815
X1.9483Y-5.5786
X1.9501Y-5.9078
X1.9503Y-5.8493
X1.9505Y-5.7112
X1.9506Y-5.6916
X1.9506Y-5.7309
X1.9506Y-5.9278
X1.9507Y-5.829
X1.9515Y-5.7498
X1.9528Y-6.9213
X1.9528Y-4.3781
X1.9541Y-5.2068
X1.9545Y-5.4135
X1.9545Y-4.7703
X1.9545Y-5.2618
X1.9545Y-5.3136
X1.9545Y-5.3609
X1.9557Y-4.9433
X1.9606Y-4.1811
X1.9642Y-4.9578
X1.9694Y-5.7902
X1.97Y-5.9477
X1.9703Y-5.7309
X1.9704Y-5.7111
X1.9714Y-4.9431
X1.9716Y-5.7493
X1.9742Y-6.748
X1.9878Y-4.9341
X1.9895Y-4.4042
X1.9898Y-4.4495
X1.99Y-5.9079
X1.99Y-5.8293
X1.99Y-5.9869
X1.99Y-5.7506
X1.9901Y-5.8686
X1.9902Y-5.9473
X1.9902Y-5.6912
X1.9903Y-5.7109
X1.9908Y-4.5941
X1.9908Y-4.6601
X1.9913Y-5.4409
X1.9977Y-4.4191
X1.9978Y-4.4349
X1.9987Y-6.3128
X2.0Y-6.9213
X2.002Y-4.7901
X2.0042Y-6.2813
X2.0055Y-5.4135
X2.0058Y-5.3609
X2.006Y-5.2614
X2.006Y-5.3135
X2.0063Y-5.2067
X2.007Y-5.4923
X2.0079Y-4.1811
X2.0079Y-5.748
X2.0097Y-5.6916
X2.01Y-5.7902
X2.0129Y-5.9503
X2.016Y-4.8718
X2.0219Y-5.1246
X2.0228Y-5.4409
X2.0279Y-5.7499
X2.0289Y-5.9082
X2.0291Y-5.9281
X2.0293Y-5.9475
X2.0293Y-6.0065
X2.0295Y-5.7704
X2.0295Y-5.8296
X2.0298Y-5.869
X2.03Y-5.9868
X2.0385Y-5.4925
X2.0394Y-6.9213
X2.0396Y-5.1246
X2.0411Y-5.0302
X2.0472Y-4.1811
X2.0472Y-6.6614
X2.0489Y-5.849
X2.049Y-5.9074
X2.049Y-5.8097
X2.049Y-5.8687
X2.049Y-5.8884
X2.05Y-4.4594
X2.0528Y-4.9031
X2.0543Y-5.1168
X2.0543Y-5.4406
X2.056Y-4.8871
X2.0631Y-5.261
X2.0631Y-5.207
X2.0631Y-5.3136
X2.0631Y-5.4138
X2.0633Y-5.361
X2.0677Y-5.8116
X2.0684Y-5.9079
X2.0684Y-5.8688
X2.0685Y-5.9274
X2.0685Y-5.8298
X2.0688Y-5.7697
X2.0689Y-5.1256
X2.0698Y-4.4591
X2.0698Y-4.5201
X2.0699Y-5.4925
X2.0708Y-4.5921
X2.0711Y-5.7483
X2.0853Y-6.4947
X2.0857Y-5.4923
X2.0866Y-5.1246
X2.0866Y-6.9213
X2.0883Y-6.0256
X2.0884Y-5.7113
X2.0884Y-5.3104
X2.0887Y-5.6714
X2.09Y-5.3574
X2.0923Y-6.7494
X2.0924Y-6.7706
X2.0945Y-4.1811
X2.1041Y-5.1246
X2.1077Y-5.8492
X2.108Y-5.8884
X2.108Y-5.9085
X2.1081Y-5.9279
X2.1081Y-5.7309
X2.1081Y-5.7506
X2.1082Y-5.6721
X2.1082Y-6.0064
X2.1085Y-5.7899
X2.1097Y-5.8086
X2.1138Y-4.9514
X2.1139Y-4.909
X2.1199Y-5.0931
X2.126Y-5.0079
X2.126Y-5.0236
X2.126Y-5.0394
X2.126Y-5.0551
X2.126Y-5.0709
X2.1276Y-5.8492
X2.1278Y-5.7506
X2.1278Y-5.1561
X2.1278Y-5.6719
X2.1278Y-5.7113
X2.1278Y-5.7309
X2.1278Y-5.7906
X2.1288Y-4.4601
X2.1288Y-4.5201
X2.1288Y-4.5621
X2.1288Y-4.6341
X2.1317Y-6.7717
X2.1339Y-6.9213
X2.1356Y-5.1404
X2.1417Y-4.1811
X2.1418Y-5.3259
X2.1435Y-5.1246
X2.1444Y-6.2635
X2.1471Y-5.7903
X2.1472Y-5.7508
X2.1473Y-5.7114
X2.1491Y-5.7712
X2.1498Y-4.3551
X2.1498Y-4.4141
X2.1514Y-5.1089
X2.1593Y-5.0931
X2.1665Y-5.3617
X2.1671Y-5.0774
X2.168Y-5.9839
X2.1684Y-5.95
X2.1693Y-6.6575
X2.1711Y-6.7752
X2.175Y-5.0616
X2.1776Y-4.8489
X2.1779Y-4.8268
X2.178Y-5.2131
X2.1811Y-5.8057
X2.1811Y-5.8346
X2.1811Y-6.9213
X2.1829Y-5.0459
X2.189Y-4.1811
X2.1908Y-5.0302
X2.1976Y-5.2019
X2.1986Y-5.0144
X2.1986Y-5.3609
X2.1986Y-5.8884
X2.2035Y-5.32
X2.2065Y-4.9987
X2.2104Y-6.7752
X2.2144Y-5.8884
X2.2154Y-5.1924
X2.2205Y-4.7402
X2.2205Y-5.7402
X2.2205Y-6.9213
X2.2223Y-4.9829
X2.2223Y-5.4406
X2.2228Y-4.3551
X2.2228Y-4.4141
X2.2283Y-4.1811
X2.2283Y-4.7874
X2.2283Y-4.8268
X2.2283Y-4.8504
X2.2283Y-4.874
X2.2283Y-4.9055
X2.2301Y-5.6522
X2.2301Y-6.1404
X2.2308Y-4.593
X2.2317Y-5.1843
X2.238Y-4.9829
X2.2395Y-6.322
X2.2428Y-4.4831
X2.2434Y-5.3406
X2.2438Y-5.9201
X2.2466Y-5.1766
X2.2498Y-6.6593
X2.2498Y-6.7775
X2.2537Y-4.9829
X2.2537Y-5.5656
X2.2541Y-6.0082
X2.2581Y-5.4515
X2.2616Y-5.1719
X2.2677Y-6.9213
X2.2695Y-4.9829
X2.2695Y-6.2262
X2.2732Y-6.1393
X2.2756Y-4.1811
X2.2756Y-6.3386
X2.2774Y-5.1719
X2.2852Y-4.9829
X2.2891Y-6.4324
X2.2892Y-6.7774
X2.2927Y-6.0085
X2.2928Y-6.3221
X2.2931Y-5.1719
X2.2948Y-5.92
X2.2955Y-4.9055
X2.301Y-4.9829
X2.3038Y-4.7795
X2.3039Y-4.7481
X2.3071Y-6.9213
X2.3089Y-5.1719
X2.3089Y-5.3687
X2.3089Y-5.5656
X2.3089Y-6.5185
X2.3091Y-4.6398
X2.3122Y-4.5906
X2.3142Y-5.451
X2.315Y-4.1811
X2.315Y-4.764
X2.3167Y-4.9829
X2.3167Y-5.849
X2.3167Y-5.8727
X2.3167Y-5.8963
X2.3167Y-5.9199
X2.3222Y-5.1568
X2.3228Y-6.3387
X2.3285Y-6.1404
X2.3286Y-6.4325
X2.3306Y-6.2595
X2.3325Y-4.9829
X2.3332Y-5.1437
X2.3361Y-5.9582
X2.3386Y-5.92
X2.3386Y-4.8031
X2.3386Y-4.8898
X2.3444Y-5.1316
X2.3482Y-5.3687
X2.3482Y-5.5656
X2.3483Y-6.2262
X2.3496Y-6.4248
X2.3514Y-4.983
X2.3543Y-6.7244
X2.3543Y-6.8189
X2.3543Y-6.9213
X2.3563Y-5.1184
X2.3577Y-5.4508
X2.3622Y-4.1811
X2.3656Y-5.0995
X2.3662Y-4.9908
X2.3664Y-5.0782
X2.3666Y-5.0121
X2.3666Y-5.0337
X2.3666Y-5.0552
X2.3723Y-4.6772
X2.3819Y-6.2595
X2.3831Y-5.958
X2.3876Y-5.3687
X2.3876Y-6.1404
X2.3877Y-6.2261
X2.3902Y-5.9199
X2.3902Y-6.4251
X2.3937Y-6.9213
X2.4005Y-6.3739
X2.4006Y-5.4513
X2.4009Y-6.2912
X2.4016Y-4.1811
X2.4034Y-5.5656
X2.4073Y-6.226
X2.4073Y-6.1404
X2.4209Y-5.1775
X2.4223Y-6.2604
X2.427Y-5.3687
X2.427Y-6.1404
X2.427Y-6.2261
X2.429Y-5.9205
X2.4327Y-5.9578
X2.4331Y-6.4252
X2.4348Y-5.8302
X2.4388Y-5.2298
X2.4409Y-6.9213
X2.4488Y-4.1811
X2.4663Y-6.226
X2.4663Y-5.3687
X2.4663Y-6.5183
X2.4717Y-5.9573
X2.4724Y-6.2604
X2.4739Y-6.4026
X2.4747Y-5.5369
X2.48Y-5.9205
X2.486Y-6.5205
X2.486Y-6.227
X2.4882Y-5.0945
X2.4882Y-6.9213
X2.4961Y-4.1811
X2.4978Y-6.3294
X2.5016Y-4.5276
X2.5057Y-6.4327
X2.5057Y-6.1404
X2.5137Y-5.9594
X2.5173Y-5.5735
X2.5253Y-6.4029
X2.5254Y-6.5197
X2.5354Y-6.9213
X2.5366Y-5.5305
X2.5372Y-5.8176
X2.5433Y-4.1811
X2.5512Y-4.8035
X2.556Y-5.8093
X2.5648Y-6.5175
X2.565Y-5.7683
X2.5653Y-5.7374
X2.5656Y-5.9594
X2.5711Y-6.2482
X2.5748Y-6.9213
X2.5827Y-4.1811
X2.5845Y-6.4325
X2.5862Y-5.5502
X2.5867Y-5.0513
X2.5919Y-6.374
X2.5923Y-6.0774
X2.5923Y-6.29
X2.6041Y-6.5175
X2.6043Y-5.843
X2.622Y-6.9213
X2.6299Y-4.1811
X2.6522Y-5.0853
X2.6535Y-6.5354
X2.6614Y-6.9213
X2.6643Y-5.5954
X2.6644Y-5.6464
X2.6693Y-4.1811
X2.6808Y-5.7288
X2.681Y-5.7796
X2.6826Y-6.2288
X2.6929Y-6.4252
X2.7025Y-6.2312
X2.7087Y-6.9213
X2.7165Y-4.1811
X2.7223Y-6.2315
X2.7429Y-6.229
X2.748Y-6.9213
X2.7559Y-4.1811
X2.7598Y-4.7598
X2.7764Y-6.4821
X2.7936Y-6.334
X2.7953Y-6.9213
X2.8031Y-4.1811
X2.8051Y-6.5849
X2.8051Y-6.6941
X2.8425Y-6.9213
X2.8448Y-6.334
X2.8504Y-4.1811
X2.8976Y-4.1811
X2.8976Y-4.2283
X2.8976Y-4.2835
X2.8976Y-4.3307
X2.8976Y-4.3858
X2.8976Y-4.4331
X2.8976Y-4.4882
X2.8976Y-4.5354
X2.8976Y-4.5906
X2.8976Y-4.6378
X2.8976Y-4.6929
X2.8976Y-4.7402
X2.8976Y-4.7953
X2.8976Y-4.8425
X2.8976Y-4.8976
X2.8976Y-4.9449
X2.8976Y-5.0
X2.8976Y-5.0551
X2.8976Y-5.1024
X2.8976Y-5.1575
X2.8976Y-5.2047
X2.8976Y-5.2598
X2.8976Y-5.3071
X2.8976Y-5.3543
X2.8976Y-5.4094
X2.8976Y-5.4567
X2.8976Y-5.5118
X2.8976Y-5.5591
X2.8976Y-5.6142
X2.8976Y-5.6614
X2.8976Y-5.7087
X2.8976Y-5.7638
X2.8976Y-5.811
X2.8976Y-5.8661
X2.8976Y-5.9134
X2.8976Y-5.9685
X2.8976Y-6.0157
X2.8976Y-6.063
X2.8976Y-6.1181
X2.8976Y-6.1654
X2.8976Y-6.2205
X2.8976Y-6.2677
X2.8976Y-6.3228
X2.8976Y-6.3701
X2.8976Y-6.4173
X2.8976Y-6.4724
X2.8976Y-6.5197
X2.8976Y-6.5748
X2.8976Y-6.622
X2.8976Y-6.6772
X2.8976Y-6.7244
X2.8976Y-6.7638
X2.8976Y-6.8189
X2.8976Y-6.8661
X2.8976Y-6.9213
T3
X1.8236Y-4.4672
X2.1779Y-4.4672
T4
X1.9201Y-4.2385
X2.0815Y-4.2917
T2
G00X1.8209Y-4.2482
M15
G01X1.8209Y-4.317
M16
G05
G00X2.1807Y-4.317
M15
G01X2.1807Y-4.2482
M16
G05
M30
