%TF.GenerationSoftware,KiCad,Pcbnew,9.0.0*%
%TF.CreationDate,2025-03-19T22:59:48-05:00*%
%TF.ProjectId,opu_driver,6f70755f-6472-4697-9665-722e6b696361,rev?*%
%TF.SameCoordinates,Original*%
%TF.FileFunction,Paste,Top*%
%TF.FilePolarity,Positive*%
%FSLAX46Y46*%
G04 Gerber Fmt 4.6, Leading zero omitted, Abs format (unit mm)*
G04 Created by KiCad (PCBNEW 9.0.0) date 2025-03-19 22:59:48*
%MOMM*%
%LPD*%
G01*
G04 APERTURE LIST*
G04 Aperture macros list*
%AMRoundRect*
0 Rectangle with rounded corners*
0 $1 Rounding radius*
0 $2 $3 $4 $5 $6 $7 $8 $9 X,Y pos of 4 corners*
0 Add a 4 corners polygon primitive as box body*
4,1,4,$2,$3,$4,$5,$6,$7,$8,$9,$2,$3,0*
0 Add four circle primitives for the rounded corners*
1,1,$1+$1,$2,$3*
1,1,$1+$1,$4,$5*
1,1,$1+$1,$6,$7*
1,1,$1+$1,$8,$9*
0 Add four rect primitives between the rounded corners*
20,1,$1+$1,$2,$3,$4,$5,0*
20,1,$1+$1,$4,$5,$6,$7,0*
20,1,$1+$1,$6,$7,$8,$9,0*
20,1,$1+$1,$8,$9,$2,$3,0*%
%AMRotRect*
0 Rectangle, with rotation*
0 The origin of the aperture is its center*
0 $1 length*
0 $2 width*
0 $3 Rotation angle, in degrees counterclockwise*
0 Add horizontal line*
21,1,$1,$2,0,0,$3*%
%AMFreePoly0*
4,1,14,0.135355,0.285355,0.150000,0.250000,0.150000,-0.250000,0.135355,-0.285355,0.100000,-0.300000,-0.100000,-0.300000,-0.135355,-0.285355,-0.150000,-0.250000,-0.150000,0.150000,-0.135355,0.185355,-0.035355,0.285355,0.000000,0.300000,0.100000,0.300000,0.135355,0.285355,0.135355,0.285355,$1*%
%AMFreePoly1*
4,1,14,0.035355,0.285355,0.135355,0.185355,0.150000,0.150000,0.150000,-0.250000,0.135355,-0.285355,0.100000,-0.300000,-0.100000,-0.300000,-0.135355,-0.285355,-0.150000,-0.250000,-0.150000,0.250000,-0.135355,0.285355,-0.100000,0.300000,0.000000,0.300000,0.035355,0.285355,0.035355,0.285355,$1*%
%AMFreePoly2*
4,1,14,0.285355,0.135355,0.300000,0.100000,0.300000,-0.100000,0.285355,-0.135355,0.250000,-0.150000,-0.150000,-0.150000,-0.185355,-0.135355,-0.285355,-0.035355,-0.300000,0.000000,-0.300000,0.100000,-0.285355,0.135355,-0.250000,0.150000,0.250000,0.150000,0.285355,0.135355,0.285355,0.135355,$1*%
%AMFreePoly3*
4,1,14,0.285355,0.135355,0.300000,0.100000,0.300000,-0.100000,0.285355,-0.135355,0.250000,-0.150000,-0.250000,-0.150000,-0.285355,-0.135355,-0.300000,-0.100000,-0.300000,0.000000,-0.285355,0.035355,-0.185355,0.135355,-0.150000,0.150000,0.250000,0.150000,0.285355,0.135355,0.285355,0.135355,$1*%
%AMFreePoly4*
4,1,14,0.135355,0.285355,0.150000,0.250000,0.150000,-0.150000,0.135355,-0.185355,0.035355,-0.285355,0.000000,-0.300000,-0.100000,-0.300000,-0.135355,-0.285355,-0.150000,-0.250000,-0.150000,0.250000,-0.135355,0.285355,-0.100000,0.300000,0.100000,0.300000,0.135355,0.285355,0.135355,0.285355,$1*%
%AMFreePoly5*
4,1,14,0.135355,0.285355,0.150000,0.250000,0.150000,-0.250000,0.135355,-0.285355,0.100000,-0.300000,0.000000,-0.300000,-0.035355,-0.285355,-0.135355,-0.185355,-0.150000,-0.150000,-0.150000,0.250000,-0.135355,0.285355,-0.100000,0.300000,0.100000,0.300000,0.135355,0.285355,0.135355,0.285355,$1*%
%AMFreePoly6*
4,1,14,0.185355,0.135355,0.285355,0.035355,0.300000,0.000000,0.300000,-0.100000,0.285355,-0.135355,0.250000,-0.150000,-0.250000,-0.150000,-0.285355,-0.135355,-0.300000,-0.100000,-0.300000,0.100000,-0.285355,0.135355,-0.250000,0.150000,0.150000,0.150000,0.185355,0.135355,0.185355,0.135355,$1*%
%AMFreePoly7*
4,1,14,0.285355,0.135355,0.300000,0.100000,0.300000,0.000000,0.285355,-0.035355,0.185355,-0.135355,0.150000,-0.150000,-0.250000,-0.150000,-0.285355,-0.135355,-0.300000,-0.100000,-0.300000,0.100000,-0.285355,0.135355,-0.250000,0.150000,0.250000,0.150000,0.285355,0.135355,0.285355,0.135355,$1*%
G04 Aperture macros list end*
%ADD10RoundRect,0.140000X-0.170000X0.140000X-0.170000X-0.140000X0.170000X-0.140000X0.170000X0.140000X0*%
%ADD11RoundRect,0.140000X0.170000X-0.140000X0.170000X0.140000X-0.170000X0.140000X-0.170000X-0.140000X0*%
%ADD12RoundRect,0.220000X0.220000X0.255000X-0.220000X0.255000X-0.220000X-0.255000X0.220000X-0.255000X0*%
%ADD13RoundRect,0.250000X-0.650000X0.325000X-0.650000X-0.325000X0.650000X-0.325000X0.650000X0.325000X0*%
%ADD14FreePoly0,0.000000*%
%ADD15O,0.200000X0.510000*%
%ADD16FreePoly1,0.000000*%
%ADD17FreePoly2,0.000000*%
%ADD18O,0.510000X0.200000*%
%ADD19FreePoly3,0.000000*%
%ADD20FreePoly4,0.000000*%
%ADD21FreePoly5,0.000000*%
%ADD22FreePoly6,0.000000*%
%ADD23FreePoly7,0.000000*%
%ADD24R,3.200000X1.200000*%
%ADD25RoundRect,0.140000X-0.219203X-0.021213X-0.021213X-0.219203X0.219203X0.021213X0.021213X0.219203X0*%
%ADD26RoundRect,0.250000X-0.229810X0.689429X-0.689429X0.229810X0.229810X-0.689429X0.689429X-0.229810X0*%
%ADD27RoundRect,0.140000X-0.140000X-0.170000X0.140000X-0.170000X0.140000X0.170000X-0.140000X0.170000X0*%
%ADD28RoundRect,0.250000X0.650000X-0.325000X0.650000X0.325000X-0.650000X0.325000X-0.650000X-0.325000X0*%
%ADD29RoundRect,0.140000X0.140000X0.170000X-0.140000X0.170000X-0.140000X-0.170000X0.140000X-0.170000X0*%
%ADD30RoundRect,0.250000X-0.325000X-0.650000X0.325000X-0.650000X0.325000X0.650000X-0.325000X0.650000X0*%
%ADD31R,0.600000X1.800000*%
%ADD32R,0.220000X0.610000*%
%ADD33R,0.410000X0.610000*%
%ADD34R,1.400000X1.200000*%
%ADD35RoundRect,0.140000X-0.021213X0.219203X-0.219203X0.021213X0.021213X-0.219203X0.219203X-0.021213X0*%
%ADD36R,0.400000X0.600000*%
%ADD37RoundRect,0.150000X0.150000X-0.590000X0.150000X0.590000X-0.150000X0.590000X-0.150000X-0.590000X0*%
%ADD38R,1.380000X1.130000*%
%ADD39RotRect,0.330200X0.406400X45.000000*%
%ADD40RotRect,0.330200X0.406400X315.000000*%
%ADD41RotRect,1.092200X1.092200X315.000000*%
%ADD42RoundRect,0.140000X0.219203X0.021213X0.021213X0.219203X-0.219203X-0.021213X-0.021213X-0.219203X0*%
%ADD43RoundRect,0.150000X0.590000X0.150000X-0.590000X0.150000X-0.590000X-0.150000X0.590000X-0.150000X0*%
%ADD44RoundRect,0.140000X0.021213X-0.219203X0.219203X-0.021213X-0.021213X0.219203X-0.219203X0.021213X0*%
%ADD45O,0.280000X1.720000*%
%ADD46R,5.830000X3.230000*%
%ADD47RoundRect,0.200000X0.200000X0.275000X-0.200000X0.275000X-0.200000X-0.275000X0.200000X-0.275000X0*%
%ADD48R,0.300000X1.140000*%
%ADD49R,1.450000X0.300000*%
%ADD50RoundRect,0.250000X0.250000X-0.600000X0.250000X0.600000X-0.250000X0.600000X-0.250000X-0.600000X0*%
%ADD51R,1.100000X0.600000*%
%ADD52R,0.550000X0.280000*%
%ADD53C,0.220000*%
%ADD54R,0.540000X0.790000*%
%ADD55RoundRect,0.200000X-0.200000X0.450000X-0.200000X-0.450000X0.200000X-0.450000X0.200000X0.450000X0*%
%ADD56R,0.570000X0.540000*%
%ADD57RoundRect,0.250000X0.229810X-0.689429X0.689429X-0.229810X-0.229810X0.689429X-0.689429X0.229810X0*%
%ADD58C,0.200000*%
%ADD59R,0.260000X0.520000*%
%ADD60R,1.280000X3.460000*%
%ADD61C,0.250000*%
%ADD62R,0.200000X0.900000*%
%ADD63R,0.900000X0.200000*%
%ADD64R,5.500000X5.500000*%
G04 APERTURE END LIST*
D10*
%TO.C,R42*%
X56661072Y-117224329D03*
X56661072Y-118224327D03*
%TD*%
D11*
%TO.C,R4*%
X44545965Y-122322067D03*
X44545965Y-121322067D03*
%TD*%
D12*
%TO.C,D7*%
X61789999Y-124200000D03*
X60210001Y-124200000D03*
%TD*%
D13*
%TO.C,C107*%
X57645165Y-146605867D03*
X57645165Y-149565867D03*
%TD*%
D10*
%TO.C,C58*%
X56045165Y-150065868D03*
X56045165Y-151065866D03*
%TD*%
D14*
%TO.C,U2*%
X47673565Y-124942767D03*
D15*
X48073565Y-124942767D03*
X48473565Y-124942767D03*
X48873565Y-124942767D03*
X49273565Y-124942767D03*
X49673565Y-124942767D03*
X50073565Y-124942767D03*
X50473565Y-124942767D03*
X50873565Y-124942767D03*
D16*
X51273565Y-124942767D03*
D17*
X51673565Y-124542767D03*
D18*
X51673565Y-124142767D03*
X51673565Y-123742767D03*
X51673565Y-123342767D03*
D19*
X51673565Y-122942767D03*
D20*
X51273565Y-122542767D03*
D15*
X50873565Y-122542767D03*
X50473565Y-122542767D03*
X50073565Y-122542767D03*
X49673565Y-122542767D03*
X49273565Y-122542767D03*
X48873565Y-122542767D03*
X48473565Y-122542767D03*
X48073565Y-122542767D03*
D21*
X47673565Y-122542767D03*
D22*
X47273565Y-122942767D03*
D18*
X47273565Y-123342767D03*
X47273565Y-123742767D03*
X47273565Y-124142767D03*
D23*
X47273565Y-124542767D03*
D24*
X49473565Y-123742767D03*
%TD*%
D10*
%TO.C,C21*%
X49549004Y-140186026D03*
X49549004Y-141186026D03*
%TD*%
D25*
%TO.C,C34*%
X36091612Y-143812314D03*
X36798718Y-144519420D03*
%TD*%
D11*
%TO.C,C93*%
X64602927Y-150282618D03*
X64602927Y-149282620D03*
%TD*%
D26*
%TO.C,C66*%
X33691683Y-149319349D03*
X31598647Y-151412385D03*
%TD*%
D27*
%TO.C,R37*%
X63150905Y-124167397D03*
X64150905Y-124167397D03*
%TD*%
D28*
%TO.C,C96*%
X57992996Y-142245869D03*
X57992996Y-139285869D03*
%TD*%
D29*
%TO.C,R25*%
X44352225Y-157945785D03*
X43352227Y-157945785D03*
%TD*%
D11*
%TO.C,C7*%
X46222365Y-125258767D03*
X46222365Y-124258767D03*
%TD*%
D29*
%TO.C,C22*%
X46745165Y-129565867D03*
X45745165Y-129565867D03*
%TD*%
D30*
%TO.C,C102*%
X64333400Y-146165151D03*
X67293400Y-146165151D03*
%TD*%
D11*
%TO.C,R9*%
X56077472Y-147183908D03*
X56077472Y-146183910D03*
%TD*%
D27*
%TO.C,C117*%
X49405165Y-159550867D03*
X50405165Y-159550867D03*
%TD*%
D28*
%TO.C,C88*%
X71645165Y-164645867D03*
X71645165Y-161685867D03*
%TD*%
D10*
%TO.C,C116*%
X46207930Y-162650868D03*
X46207930Y-163650866D03*
%TD*%
D29*
%TO.C,R17*%
X56145165Y-142565867D03*
X55145165Y-142565867D03*
%TD*%
D31*
%TO.C,H1*%
X40145165Y-173300000D03*
X40145165Y-170300000D03*
X41145165Y-173300000D03*
X41145165Y-170300000D03*
X42145165Y-173300000D03*
X42145165Y-170300000D03*
X43145165Y-173300000D03*
X43145165Y-170300000D03*
X44145165Y-173300000D03*
X44145165Y-170300000D03*
X45145165Y-173300000D03*
X45145165Y-170300000D03*
X46145165Y-173300000D03*
X46145165Y-170300000D03*
X47145165Y-173300000D03*
X47145165Y-170300000D03*
X48145165Y-173300000D03*
X48145165Y-170300000D03*
X49145165Y-173300000D03*
X49145165Y-170300000D03*
X50145165Y-173300000D03*
X50145165Y-170300000D03*
X51145165Y-173300000D03*
X51145165Y-170300000D03*
X52145165Y-173300000D03*
X52145165Y-170300000D03*
X53145165Y-173300000D03*
X53145165Y-170300000D03*
X54145165Y-173300000D03*
X54145165Y-170300000D03*
X55145165Y-173300000D03*
X55145165Y-170300000D03*
X56145165Y-173300000D03*
X56145165Y-170300000D03*
X57145165Y-173300000D03*
X57145165Y-170300000D03*
X58145165Y-173300000D03*
X58145165Y-170300000D03*
X59145165Y-173300000D03*
X59145165Y-170300000D03*
%TD*%
D27*
%TO.C,R29*%
X48405165Y-158750867D03*
X49405165Y-158750867D03*
%TD*%
%TO.C,R18*%
X64615562Y-148427747D03*
X65615560Y-148427747D03*
%TD*%
D32*
%TO.C,D1*%
X55070965Y-116382867D03*
X54570965Y-116382867D03*
D33*
X54070965Y-116382867D03*
D32*
X53570965Y-116382867D03*
X53070965Y-116382867D03*
X53070965Y-117202867D03*
X53570965Y-117202867D03*
D33*
X54070965Y-117202867D03*
D32*
X54570965Y-117202867D03*
X55070965Y-117202867D03*
%TD*%
D11*
%TO.C,C57*%
X56070934Y-149065866D03*
X56070934Y-148065868D03*
%TD*%
D34*
%TO.C,X1*%
X56920877Y-129146938D03*
X59120877Y-129146938D03*
X59120877Y-127446938D03*
X56920877Y-127446938D03*
%TD*%
D35*
%TO.C,R26*%
X44198718Y-147212314D03*
X43491612Y-147919420D03*
%TD*%
D36*
%TO.C,D5*%
X49205165Y-164365867D03*
X49845165Y-164365867D03*
%TD*%
D27*
%TO.C,R36*%
X63206958Y-122008960D03*
X64206958Y-122008960D03*
%TD*%
%TO.C,R28*%
X46608684Y-158750867D03*
X47608684Y-158750867D03*
%TD*%
D37*
%TO.C,Q1*%
X63177740Y-128302630D03*
X65077740Y-128302630D03*
X64127740Y-126422631D03*
%TD*%
D32*
%TO.C,D2*%
X46568565Y-117228267D03*
X47068565Y-117228267D03*
D33*
X47568565Y-117228267D03*
D32*
X48068565Y-117228267D03*
X48568565Y-117228267D03*
X48568565Y-116408267D03*
X48068565Y-116408267D03*
D33*
X47568565Y-116408267D03*
D32*
X47068565Y-116408267D03*
X46568565Y-116408267D03*
%TD*%
D38*
%TO.C,L3*%
X62045165Y-146652977D03*
X62045165Y-144712975D03*
%TD*%
D10*
%TO.C,C115*%
X47005165Y-162658154D03*
X47005165Y-163658152D03*
%TD*%
D29*
%TO.C,C10*%
X49945165Y-126565867D03*
X48945165Y-126565867D03*
%TD*%
D10*
%TO.C,C23*%
X56445165Y-136665867D03*
X56445165Y-137665867D03*
%TD*%
%TO.C,C18*%
X52020071Y-115255615D03*
X52020071Y-116255613D03*
%TD*%
%TO.C,R2*%
X43707765Y-121322067D03*
X43707765Y-122322067D03*
%TD*%
%TO.C,C17*%
X49600000Y-115300001D03*
X49600000Y-116299999D03*
%TD*%
%TO.C,R41*%
X58200000Y-118500001D03*
X58200000Y-119499999D03*
%TD*%
D11*
%TO.C,C24*%
X55445165Y-135665867D03*
X55445165Y-134665867D03*
%TD*%
%TO.C,C16*%
X46400165Y-120061467D03*
X46400165Y-119061467D03*
%TD*%
D39*
%TO.C,U7*%
X37769039Y-141107788D03*
X37415396Y-141461431D03*
X37061754Y-141815073D03*
X36708111Y-142168716D03*
D40*
X36708111Y-142867918D03*
X37061754Y-143221561D03*
X37415396Y-143575203D03*
X37769039Y-143928846D03*
D39*
X38468241Y-143928846D03*
X38821884Y-143575203D03*
X39175526Y-143221561D03*
X39529169Y-142867918D03*
D40*
X39529169Y-142168716D03*
X39175526Y-141815073D03*
X38821884Y-141461431D03*
X38468241Y-141107788D03*
D41*
X38118640Y-142518317D03*
%TD*%
D11*
%TO.C,C14*%
X53715365Y-120061467D03*
X53715365Y-119061467D03*
%TD*%
D29*
%TO.C,R35*%
X50056324Y-163484707D03*
X49056326Y-163484707D03*
%TD*%
D42*
%TO.C,R44*%
X55481344Y-137435911D03*
X54774238Y-136728805D03*
%TD*%
D43*
%TO.C,Q2*%
X63540000Y-116350000D03*
X63540000Y-114450000D03*
X61660001Y-115400000D03*
%TD*%
D13*
%TO.C,C3*%
X60445165Y-134685867D03*
X60445165Y-137645867D03*
%TD*%
D10*
%TO.C,C127*%
X48956325Y-156313828D03*
X48956325Y-157313826D03*
%TD*%
D30*
%TO.C,C100*%
X63912995Y-142765868D03*
X66872995Y-142765868D03*
%TD*%
D27*
%TO.C,C25*%
X60945165Y-133365867D03*
X61945165Y-133365867D03*
%TD*%
D44*
%TO.C,C75*%
X30071752Y-149919420D03*
X30778858Y-149212314D03*
%TD*%
D42*
%TO.C,C31*%
X37399125Y-140041808D03*
X36692019Y-139334702D03*
%TD*%
D45*
%TO.C,U8*%
X70145165Y-157055867D03*
X69645165Y-157055867D03*
X69145165Y-157055867D03*
X68645165Y-157055867D03*
X68145165Y-157055867D03*
X67645165Y-157055867D03*
X67145165Y-157055867D03*
X66645165Y-157055867D03*
X66145165Y-157055867D03*
X65645165Y-157055867D03*
X65145165Y-157055867D03*
X64645165Y-157055867D03*
X64145165Y-157055867D03*
X63645165Y-157055867D03*
X63145165Y-157055867D03*
X62645165Y-157055867D03*
X62145165Y-157055867D03*
X61645165Y-157055867D03*
X61145165Y-157055867D03*
X60645165Y-157055867D03*
X60145165Y-157055867D03*
X59645165Y-157055867D03*
X59145165Y-157055867D03*
X58645165Y-157055867D03*
X58145165Y-157055867D03*
X57645165Y-157055867D03*
X57145165Y-157055867D03*
X56645165Y-157055867D03*
X56645165Y-164475867D03*
X57145165Y-164475867D03*
X57645165Y-164475867D03*
X58145165Y-164475867D03*
X58645165Y-164475867D03*
X59145165Y-164475867D03*
X59645165Y-164475867D03*
X60145165Y-164475867D03*
X60645165Y-164475867D03*
X61145165Y-164475867D03*
X61645165Y-164475867D03*
X62145165Y-164475867D03*
X62645165Y-164475867D03*
X63145165Y-164475867D03*
X63645165Y-164475867D03*
X64145165Y-164475867D03*
X64645165Y-164475867D03*
X65145165Y-164475867D03*
X65645165Y-164475867D03*
X66145165Y-164475867D03*
X66645165Y-164475867D03*
X67145165Y-164475867D03*
X67645165Y-164475867D03*
X68145165Y-164475867D03*
X68645165Y-164475867D03*
X69145165Y-164475867D03*
X69645165Y-164475867D03*
X70145165Y-164475867D03*
D46*
X63395165Y-160765867D03*
%TD*%
D47*
%TO.C,R6*%
X47931365Y-126571867D03*
X46291365Y-126571867D03*
%TD*%
D29*
%TO.C,C76*%
X67345164Y-154365867D03*
X66345166Y-154365867D03*
%TD*%
D27*
%TO.C,C6*%
X56945165Y-130765867D03*
X57945165Y-130765867D03*
%TD*%
D29*
%TO.C,C109*%
X42852084Y-157115346D03*
X41852086Y-157115346D03*
%TD*%
D25*
%TO.C,C33*%
X39002670Y-144889281D03*
X39709776Y-145596387D03*
%TD*%
D48*
%TO.C,USB1*%
X54069765Y-114038067D03*
X53569765Y-114038067D03*
X53069765Y-114038067D03*
X52569765Y-114038067D03*
X52069765Y-114038067D03*
X51569765Y-114038067D03*
X51069765Y-114038067D03*
X50569765Y-114038067D03*
X49069765Y-114038067D03*
X48569765Y-114038067D03*
X48069765Y-114038067D03*
X47569765Y-114038067D03*
D49*
X46099765Y-110618067D03*
X46099765Y-111118067D03*
X46099765Y-111618067D03*
X46099765Y-112118067D03*
X46099765Y-112618067D03*
D48*
X49569765Y-114038067D03*
X50069765Y-114038067D03*
D49*
X55539765Y-112618067D03*
X55539765Y-112118067D03*
X55539765Y-111618067D03*
X55539765Y-111118067D03*
X55539765Y-110618067D03*
%TD*%
D35*
%TO.C,C78*%
X29398718Y-150612314D03*
X28691612Y-151319420D03*
%TD*%
D27*
%TO.C,C29*%
X52345165Y-129365867D03*
X53345165Y-129365867D03*
%TD*%
D50*
%TO.C,S2*%
X67150000Y-127500000D03*
X67150000Y-120900000D03*
X70850000Y-127500000D03*
X70850000Y-120900000D03*
%TD*%
D25*
%TO.C,C32*%
X40413966Y-141509464D03*
X41121072Y-142216570D03*
%TD*%
D51*
%TO.C,U13*%
X59450000Y-117850000D03*
X59450000Y-118800000D03*
X59450000Y-119750000D03*
X62150000Y-119750000D03*
X62150000Y-118800000D03*
X62150000Y-117850000D03*
%TD*%
D25*
%TO.C,C111*%
X40402576Y-143496141D03*
X41109682Y-144203247D03*
%TD*%
D28*
%TO.C,C71*%
X29245165Y-147245867D03*
X29245165Y-144285867D03*
%TD*%
D11*
%TO.C,C7*%
X55245165Y-130865867D03*
X55245165Y-129865867D03*
%TD*%
%TO.C,C28*%
X51445165Y-129265867D03*
X51445165Y-128265867D03*
%TD*%
D27*
%TO.C,R43*%
X59200000Y-116600000D03*
X60199998Y-116600000D03*
%TD*%
D52*
%TO.C,U11*%
X63765164Y-148585867D03*
X63765165Y-148085867D03*
X63765164Y-147585867D03*
X62325166Y-147585867D03*
X62325165Y-148085867D03*
X62325166Y-148585867D03*
%TD*%
D25*
%TO.C,C112*%
X39796877Y-144127076D03*
X40503983Y-144834182D03*
%TD*%
D53*
%TO.C,U5*%
X43632411Y-157261547D03*
X43632412Y-156861547D03*
X43632411Y-156461547D03*
X44032411Y-157261547D03*
X44032410Y-156861547D03*
X44032411Y-156461547D03*
%TD*%
D10*
%TO.C,R24*%
X44245165Y-158765869D03*
X44245165Y-159765867D03*
%TD*%
D12*
%TO.C,D9*%
X61789999Y-122000000D03*
X60210001Y-122000000D03*
%TD*%
D10*
%TO.C,C19*%
X56970822Y-112368082D03*
X56970822Y-113368080D03*
%TD*%
D27*
%TO.C,R21*%
X62745166Y-149285867D03*
X63745164Y-149285867D03*
%TD*%
D13*
%TO.C,C5*%
X58045165Y-134685867D03*
X58045165Y-137645867D03*
%TD*%
D28*
%TO.C,C95*%
X60392997Y-142245867D03*
X60392997Y-139285867D03*
%TD*%
D11*
%TO.C,C27*%
X49245165Y-129665867D03*
X49245165Y-128665867D03*
%TD*%
D27*
%TO.C,R30*%
X47614462Y-159550866D03*
X48614462Y-159550866D03*
%TD*%
D10*
%TO.C,C26*%
X56445165Y-134665867D03*
X56445165Y-135665867D03*
%TD*%
D54*
%TO.C,L1*%
X45405165Y-162650867D03*
X45405165Y-163750867D03*
%TD*%
D11*
%TO.C,R3*%
X43707765Y-124176267D03*
X43707765Y-123176267D03*
%TD*%
%TO.C,C15*%
X47212965Y-120061467D03*
X47212965Y-119061467D03*
%TD*%
D55*
%TO.C,S1*%
X39230000Y-128800000D03*
X37960000Y-128800000D03*
X37970000Y-136800000D03*
X39240000Y-136800000D03*
%TD*%
D13*
%TO.C,C108*%
X60045165Y-146605867D03*
X60045165Y-149565867D03*
%TD*%
D56*
%TO.C,R27*%
X49416427Y-160346027D03*
X50276427Y-160346027D03*
%TD*%
D42*
%TO.C,C67*%
X32125640Y-148587100D03*
X31418534Y-147879994D03*
%TD*%
D57*
%TO.C,C91*%
X32798647Y-153612385D03*
X34891683Y-151519349D03*
%TD*%
D29*
%TO.C,C64*%
X66945164Y-155165867D03*
X65945166Y-155165867D03*
%TD*%
D10*
%TO.C,C126*%
X48122453Y-156317826D03*
X48122453Y-157317824D03*
%TD*%
D58*
%TO.C,U12*%
X48305165Y-161900867D03*
X48805165Y-161900867D03*
X49305165Y-161900867D03*
X48305165Y-162400867D03*
X48805165Y-162400867D03*
X49305165Y-162400867D03*
%TD*%
D29*
%TO.C,C8*%
X47605164Y-160350867D03*
X46605166Y-160350867D03*
%TD*%
D11*
%TO.C,C13*%
X52902565Y-120061467D03*
X52902565Y-119061467D03*
%TD*%
D59*
%TO.C,D4*%
X51216209Y-115211467D03*
X51216209Y-116291467D03*
%TD*%
D60*
%TO.C,R12*%
X65975165Y-168565867D03*
X72115165Y-168565867D03*
%TD*%
D42*
%TO.C,C30*%
X39398718Y-140519420D03*
X38691612Y-139812314D03*
%TD*%
D35*
%TO.C,R11*%
X54798718Y-158012314D03*
X54091612Y-158719420D03*
%TD*%
D29*
%TO.C,C110*%
X42852084Y-156283039D03*
X41852086Y-156283039D03*
%TD*%
D61*
%TO.C,U4*%
X45795165Y-152315867D03*
X45795165Y-151815867D03*
X45795165Y-151315867D03*
X45795165Y-150315867D03*
X45795165Y-149815867D03*
X45795165Y-149315867D03*
X45795165Y-148815867D03*
X45795165Y-148315867D03*
X45795165Y-147815867D03*
X45795165Y-147315867D03*
X45795165Y-146815867D03*
X45795165Y-145815867D03*
X45795165Y-145315867D03*
X45795165Y-144815867D03*
X46295165Y-152815867D03*
X46295165Y-152315867D03*
X46295165Y-151815867D03*
X46295165Y-151315867D03*
X46295165Y-150315867D03*
X46295165Y-149815867D03*
X46295165Y-149315867D03*
X46295165Y-148815867D03*
X46295165Y-148315867D03*
X46295165Y-147815867D03*
X46295165Y-147315867D03*
X46295165Y-146815867D03*
X46295165Y-145815867D03*
X46295165Y-145315867D03*
X46295165Y-144815867D03*
X46295165Y-144315867D03*
X46795165Y-152815867D03*
X46795165Y-152315867D03*
X46795165Y-151815867D03*
X46795165Y-151315867D03*
X46795165Y-150315867D03*
X46795165Y-149815867D03*
X46795165Y-149315867D03*
X46795165Y-148815867D03*
X46795165Y-148315867D03*
X46795165Y-147815867D03*
X46795165Y-147315867D03*
X46795165Y-146815867D03*
X46795165Y-145815867D03*
X46795165Y-145315867D03*
X46795165Y-144815867D03*
X46795165Y-144315867D03*
X47295165Y-152815867D03*
X47295165Y-152315867D03*
X47295165Y-151815867D03*
X47295165Y-151315867D03*
X47295165Y-150315867D03*
X47295165Y-149815867D03*
X47295165Y-149315867D03*
X47295165Y-148815867D03*
X47295165Y-148315867D03*
X47295165Y-147815867D03*
X47295165Y-147315867D03*
X47295165Y-146815867D03*
X47295165Y-145815867D03*
X47295165Y-145315867D03*
X47295165Y-144815867D03*
X47295165Y-144315867D03*
X47795165Y-150815867D03*
X47795165Y-150315867D03*
X47795165Y-149815867D03*
X47795165Y-149315867D03*
X47795165Y-148815867D03*
X47795165Y-148315867D03*
X47795165Y-147815867D03*
X47795165Y-147315867D03*
X47795165Y-146815867D03*
X47795165Y-146315867D03*
X48295165Y-152815867D03*
X48295165Y-152315867D03*
X48295165Y-151815867D03*
X48295165Y-151315867D03*
X48295165Y-150815867D03*
X48295165Y-150315867D03*
X48295165Y-149815867D03*
X48295165Y-149315867D03*
X48295165Y-148815867D03*
X48295165Y-148315867D03*
X48295165Y-147815867D03*
X48295165Y-147315867D03*
X48295165Y-146815867D03*
X48295165Y-146315867D03*
X48295165Y-145815867D03*
X48295165Y-145315867D03*
X48295165Y-144815867D03*
X48295165Y-144315867D03*
X48795165Y-152815867D03*
X48795165Y-152315867D03*
X48795165Y-151815867D03*
X48795165Y-151315867D03*
X48795165Y-150815867D03*
X48795165Y-150315867D03*
X48795165Y-149815867D03*
X48795165Y-149315867D03*
X48795165Y-148815867D03*
X48795165Y-148315867D03*
X48795165Y-147815867D03*
X48795165Y-147315867D03*
X48795165Y-146815867D03*
X48795165Y-146315867D03*
X48795165Y-145815867D03*
X48795165Y-145315867D03*
X48795165Y-144815867D03*
X48795165Y-144315867D03*
X49295165Y-152815867D03*
X49295165Y-152315867D03*
X49295165Y-151815867D03*
X49295165Y-151315867D03*
X49295165Y-150815867D03*
X49295165Y-150315867D03*
X49295165Y-149815867D03*
X49295165Y-149315867D03*
X49295165Y-148815867D03*
X49295165Y-148315867D03*
X49295165Y-147815867D03*
X49295165Y-147315867D03*
X49295165Y-146815867D03*
X49295165Y-146315867D03*
X49295165Y-145815867D03*
X49295165Y-145315867D03*
X49295165Y-144815867D03*
X49295165Y-144315867D03*
X49795165Y-152815867D03*
X49795165Y-152315867D03*
X49795165Y-151815867D03*
X49795165Y-151315867D03*
X49795165Y-150815867D03*
X49795165Y-150315867D03*
X49795165Y-149815867D03*
X49795165Y-149315867D03*
X49795165Y-148815867D03*
X49795165Y-148315867D03*
X49795165Y-147815867D03*
X49795165Y-147315867D03*
X49795165Y-146815867D03*
X49795165Y-146315867D03*
X49795165Y-145815867D03*
X49795165Y-145315867D03*
X49795165Y-144815867D03*
X49795165Y-144315867D03*
X50295165Y-152815867D03*
X50295165Y-152315867D03*
X50295165Y-151815867D03*
X50295165Y-151315867D03*
X50295165Y-150815867D03*
X50295165Y-150315867D03*
X50295165Y-149815867D03*
X50295165Y-149315867D03*
X50295165Y-148815867D03*
X50295165Y-148315867D03*
X50295165Y-147815867D03*
X50295165Y-147315867D03*
X50295165Y-146815867D03*
X50295165Y-146315867D03*
X50295165Y-145815867D03*
X50295165Y-145315867D03*
X50295165Y-144815867D03*
X50295165Y-144315867D03*
X50795165Y-152815867D03*
X50795165Y-152315867D03*
X50795165Y-151815867D03*
X50795165Y-151315867D03*
X50795165Y-150815867D03*
X50795165Y-150315867D03*
X50795165Y-149815867D03*
X50795165Y-149315867D03*
X50795165Y-148815867D03*
X50795165Y-148315867D03*
X50795165Y-147815867D03*
X50795165Y-147315867D03*
X50795165Y-146815867D03*
X50795165Y-146315867D03*
X50795165Y-145815867D03*
X50795165Y-145315867D03*
X50795165Y-144815867D03*
X50795165Y-144315867D03*
X51295165Y-152815867D03*
X51295165Y-152315867D03*
X51295165Y-151815867D03*
X51295165Y-151315867D03*
X51295165Y-150815867D03*
X51295165Y-150315867D03*
X51295165Y-149815867D03*
X51295165Y-149315867D03*
X51295165Y-148815867D03*
X51295165Y-148315867D03*
X51295165Y-147815867D03*
X51295165Y-147315867D03*
X51295165Y-146815867D03*
X51295165Y-146315867D03*
X51295165Y-145815867D03*
X51295165Y-145315867D03*
X51295165Y-144815867D03*
X51295165Y-144315867D03*
X51795165Y-152815867D03*
X51795165Y-152315867D03*
X51795165Y-151815867D03*
X51795165Y-151315867D03*
X51795165Y-150815867D03*
X51795165Y-150315867D03*
X51795165Y-149815867D03*
X51795165Y-149315867D03*
X51795165Y-148815867D03*
X51795165Y-148315867D03*
X51795165Y-147815867D03*
X51795165Y-147315867D03*
X51795165Y-146815867D03*
X51795165Y-146315867D03*
X51795165Y-145815867D03*
X51795165Y-145315867D03*
X51795165Y-144815867D03*
X51795165Y-144315867D03*
X52295165Y-150815867D03*
X52295165Y-150315867D03*
X52295165Y-149815867D03*
X52295165Y-149315867D03*
X52295165Y-148815867D03*
X52295165Y-148315867D03*
X52295165Y-147815867D03*
X52295165Y-147315867D03*
X52295165Y-146815867D03*
X52295165Y-146315867D03*
X52795165Y-152815867D03*
X52795165Y-152315867D03*
X52795165Y-151815867D03*
X52795165Y-148315867D03*
X52795165Y-145315867D03*
X52795165Y-144815867D03*
X52795165Y-144315867D03*
X53295165Y-152815867D03*
X53295165Y-152315867D03*
X53295165Y-151815867D03*
X53295165Y-151315867D03*
X53295165Y-150815867D03*
X53295165Y-150315867D03*
X53295165Y-149815867D03*
X53295165Y-149315867D03*
X53295165Y-148815867D03*
X53295165Y-148315867D03*
X53295165Y-147815867D03*
X53295165Y-147315867D03*
X53295165Y-146815867D03*
X53295165Y-146315867D03*
X53295165Y-145815867D03*
X53295165Y-145315867D03*
X53295165Y-144815867D03*
X53295165Y-144315867D03*
X53795165Y-152815867D03*
X53795165Y-152315867D03*
X53795165Y-151815867D03*
X53795165Y-151315867D03*
X53795165Y-150815867D03*
X53795165Y-150315867D03*
X53795165Y-149815867D03*
X53795165Y-149315867D03*
X53795165Y-148815867D03*
X53795165Y-148315867D03*
X53795165Y-147815867D03*
X53795165Y-147315867D03*
X53795165Y-146815867D03*
X53795165Y-146315867D03*
X53795165Y-145815867D03*
X53795165Y-145315867D03*
X53795165Y-144815867D03*
X53795165Y-144315867D03*
X54295165Y-152315867D03*
X54295165Y-151815867D03*
X54295165Y-151315867D03*
X54295165Y-150815867D03*
X54295165Y-150315867D03*
X54295165Y-149815867D03*
X54295165Y-149315867D03*
X54295165Y-148815867D03*
X54295165Y-148315867D03*
X54295165Y-147815867D03*
X54295165Y-147315867D03*
X54295165Y-146815867D03*
X54295165Y-146315867D03*
X54295165Y-145815867D03*
X54295165Y-145315867D03*
X54295165Y-144815867D03*
%TD*%
D36*
%TO.C,D6*%
X49205165Y-165180867D03*
X49845165Y-165180867D03*
%TD*%
D10*
%TO.C,R7*%
X44545965Y-123201667D03*
X44545965Y-124201667D03*
%TD*%
D29*
%TO.C,R20*%
X63447868Y-140637522D03*
X62447870Y-140637522D03*
%TD*%
D10*
%TO.C,C9*%
X48199999Y-127634443D03*
X48199999Y-128634441D03*
%TD*%
D27*
%TO.C,R45*%
X41145165Y-149165867D03*
X42145165Y-149165867D03*
%TD*%
D10*
%TO.C,R23*%
X43445165Y-158765869D03*
X43445165Y-159765867D03*
%TD*%
D29*
%TO.C,C77*%
X60145164Y-155443846D03*
X59145166Y-155443846D03*
%TD*%
D11*
%TO.C,C8*%
X45409565Y-125258767D03*
X45409565Y-124258767D03*
%TD*%
D29*
%TO.C,R5*%
X45401565Y-126571867D03*
X44401565Y-126571867D03*
%TD*%
D62*
%TO.C,U1*%
X52978365Y-130933034D03*
X52578365Y-130933034D03*
X52178365Y-130933034D03*
X51778365Y-130933034D03*
X51378365Y-130933034D03*
X50978365Y-130933034D03*
X50578365Y-130933034D03*
X50178365Y-130933034D03*
X49778365Y-130933034D03*
X49378365Y-130933034D03*
X48978365Y-130933034D03*
X48578365Y-130933034D03*
X48178365Y-130933034D03*
X47778365Y-130933034D03*
X47378365Y-130933034D03*
X46978365Y-130933034D03*
X46578365Y-130933034D03*
D63*
X45828365Y-131683034D03*
X45828365Y-132083034D03*
X45828365Y-132483034D03*
X45828365Y-132883034D03*
X45828365Y-133283034D03*
X45828365Y-133683034D03*
X45828365Y-134083034D03*
X45828365Y-134483034D03*
X45828365Y-134883034D03*
X45828365Y-135283034D03*
X45828365Y-135683034D03*
X45828365Y-136083034D03*
X45828365Y-136483034D03*
X45828365Y-136883034D03*
X45828365Y-137283034D03*
X45828365Y-137683034D03*
X45828365Y-138083034D03*
D62*
X46578365Y-138833034D03*
X46978365Y-138833034D03*
X47378365Y-138833034D03*
X47778365Y-138833034D03*
X48178365Y-138833034D03*
X48578365Y-138833034D03*
X48978365Y-138833034D03*
X49378365Y-138833034D03*
X49778365Y-138833034D03*
X50178365Y-138833034D03*
X50578365Y-138833034D03*
X50978365Y-138833034D03*
X51378365Y-138833034D03*
X51778365Y-138833034D03*
X52178365Y-138833034D03*
X52578365Y-138833034D03*
X52978365Y-138833034D03*
D63*
X53728365Y-138083034D03*
X53728365Y-137683034D03*
X53728365Y-137283034D03*
X53728365Y-136883034D03*
X53728365Y-136483034D03*
X53728365Y-136083034D03*
X53728365Y-135683034D03*
X53728365Y-135283034D03*
X53728365Y-134883034D03*
X53728365Y-134483034D03*
X53728365Y-134083034D03*
X53728365Y-133683034D03*
X53728365Y-133283034D03*
X53728365Y-132883034D03*
X53728365Y-132483034D03*
X53728365Y-132083034D03*
X53728365Y-131683034D03*
D64*
X49778365Y-134883034D03*
%TD*%
D10*
%TO.C,C20*%
X44647565Y-112458357D03*
X44647565Y-113458355D03*
%TD*%
M02*
